<svg xmlns="http://www.w3.org/2000/svg" xmlns:xlink="http://www.w3.org/1999/xlink" width="500" zoomAndPan="magnify" viewBox="0 0 375 374.999991" height="500" preserveAspectRatio="xMidYMid meet" version="1.0"><defs><g/><clipPath id="8bfc123460"><path d="M 243 35 L 254.289062 35 L 254.289062 65 L 243 65 Z M 243 35 " clip-rule="nonzero"/></clipPath><clipPath id="df0df71c12"><path d="M 234 69 L 254.289062 69 L 254.289062 112 L 234 112 Z M 234 69 " clip-rule="nonzero"/></clipPath><clipPath id="44133185b3"><path d="M 120.789062 69 L 146 69 L 146 117 L 120.789062 117 Z M 120.789062 69 " clip-rule="nonzero"/></clipPath><clipPath id="b1e0996c9c"><path d="M 156.167969 122.609375 L 184.871094 122.609375 L 184.871094 133.488281 L 156.167969 133.488281 Z M 156.167969 122.609375 " clip-rule="nonzero"/></clipPath></defs><path fill="#2edd99" d="M 192.582031 0.160156 C 191.859375 0.105469 191.140625 0.0429688 190.410156 0.0117188 C 190.425781 1.207031 190.449219 2.398438 190.464844 3.59375 C 191.125 3.625 191.773438 3.679688 192.425781 3.730469 C 192.464844 2.539062 192.519531 1.347656 192.582031 0.160156 " fill-opacity="1" fill-rule="nonzero"/><path fill="#2edd99" d="M 244.210938 31.4375 C 234.082031 15.257812 217.230469 3.695312 197.59375 0.71875 C 197.53125 1.917969 197.480469 3.117188 197.441406 4.316406 C 215.894531 7.230469 231.707031 18.160156 241.21875 33.40625 C 242.210938 32.742188 243.207031 32.089844 244.210938 31.4375 " fill-opacity="1" fill-rule="nonzero"/><g clip-path="url(#8bfc123460)"><path fill="#2edd99" d="M 254.285156 64.097656 C 253.890625 53.921875 251.195312 44.324219 246.71875 35.804688 C 245.710938 36.457031 244.710938 37.113281 243.714844 37.78125 C 247.828125 45.722656 250.292969 54.648438 250.6875 64.097656 L 254.285156 64.097656 " fill-opacity="1" fill-rule="nonzero"/></g><g clip-path="url(#df0df71c12)"><path fill="#2edd99" d="M 250.710938 69.132812 C 250.132812 84.675781 243.921875 98.800781 234.058594 109.519531 C 234.957031 110.300781 235.882812 111.058594 236.8125 111.8125 C 247.195312 100.472656 253.707031 85.546875 254.289062 69.132812 L 250.710938 69.132812 " fill-opacity="1" fill-rule="nonzero"/></g><g clip-path="url(#44133185b3)"><path fill="#2edd99" d="M 143.257812 116.710938 C 144 115.773438 144.753906 114.847656 145.488281 113.90625 C 133.128906 102.878906 125.109375 87.078125 124.371094 69.421875 C 123.179688 69.390625 121.984375 69.363281 120.789062 69.34375 C 121.515625 88.164062 130.0625 105.003906 143.257812 116.710938 " fill-opacity="1" fill-rule="nonzero"/></g><path fill="#2edd99" d="M 147.121094 119.894531 C 148.675781 121.082031 150.289062 122.203125 151.949219 123.253906 C 152.589844 122.246094 153.230469 121.242188 153.867188 120.230469 C 152.3125 119.25 150.804688 118.199219 149.34375 117.089844 C 148.609375 118.03125 147.859375 118.957031 147.121094 119.894531 " fill-opacity="1" fill-rule="nonzero"/><g clip-path="url(#b1e0996c9c)"><path fill="#2edd99" d="M 158.230469 122.742188 C 157.59375 123.753906 156.949219 124.761719 156.3125 125.769531 C 164.835938 130.296875 174.441406 133.050781 184.648438 133.488281 C 184.671875 132.292969 184.726562 131.101562 184.816406 129.910156 C 175.253906 129.503906 166.242188 126.949219 158.230469 122.742188 " fill-opacity="1" fill-rule="nonzero"/></g><path fill="#2edd99" d="M 139.203125 35 L 135.691406 32.566406 C 135.492188 32.863281 135.289062 33.160156 135.09375 33.457031 L 138.625 35.90625 C 138.816406 35.601562 139.007812 35.300781 139.203125 35 " fill-opacity="1" fill-rule="nonzero"/><path fill="#2edd99" d="M 147.398438 25.140625 L 144.566406 22.128906 C 144.304688 22.375 144.046875 22.625 143.792969 22.875 L 146.621094 25.882812 C 146.875 25.628906 147.144531 25.386719 147.398438 25.140625 " fill-opacity="1" fill-rule="nonzero"/><path fill="#2edd99" d="M 157.585938 17.261719 L 155.449219 13.742188 C 155.144531 13.929688 154.84375 14.125 154.539062 14.316406 L 156.683594 17.84375 C 156.984375 17.652344 157.28125 17.449219 157.585938 17.261719 " fill-opacity="1" fill-rule="nonzero"/><path fill="#2edd99" d="M 181.800781 9.179688 L 181.214844 4.613281 C 180.859375 4.65625 180.503906 4.707031 180.148438 4.757812 L 180.734375 9.304688 C 181.089844 9.265625 181.445312 9.214844 181.800781 9.179688 " fill-opacity="1" fill-rule="nonzero"/><path fill="#2edd99" d="M 169.203125 11.886719 L 167.78125 7.835938 C 167.441406 7.953125 167.105469 8.078125 166.769531 8.203125 L 168.1875 12.230469 C 168.523438 12.113281 168.863281 12 169.203125 11.886719 " fill-opacity="1" fill-rule="nonzero"/><path fill="#2edd99" d="M 220.785156 114.054688 L 223.25 117.097656 C 223.519531 116.890625 223.785156 116.675781 224.050781 116.460938 L 221.617188 113.460938 C 221.34375 113.664062 221.058594 113.859375 220.785156 114.054688 " fill-opacity="1" fill-rule="nonzero"/><path fill="#2edd99" d="M 210.417969 119.878906 L 212.449219 123.835938 C 212.753906 123.6875 213.058594 123.539062 213.363281 123.382812 L 211.347656 119.457031 C 211.039062 119.597656 210.730469 119.742188 210.417969 119.878906 " fill-opacity="1" fill-rule="nonzero"/><path fill="#2edd99" d="M 199.125 123.4375 L 200.425781 128.242188 C 200.757812 128.160156 201.085938 128.074219 201.414062 127.984375 L 200.121094 123.210938 C 199.789062 123.285156 199.457031 123.371094 199.125 123.4375 " fill-opacity="1" fill-rule="nonzero"/><path fill="#2edd99" d="M 130.222656 58.925781 L 125.351562 58.03125 C 125.292969 58.386719 125.230469 58.738281 125.171875 59.09375 L 130.085938 59.992188 C 130.128906 59.636719 130.175781 59.28125 130.222656 58.925781 " fill-opacity="1" fill-rule="nonzero"/><path fill="#2edd99" d="M 133.40625 46.34375 L 129.222656 44.59375 C 129.085938 44.921875 128.957031 45.257812 128.828125 45.59375 L 133.035156 47.355469 C 133.15625 47.015625 133.28125 46.679688 133.40625 46.34375 " fill-opacity="1" fill-rule="nonzero"/><path fill="#2edd99" d="M 226.46875 105.15625 L 226.320312 105.304688 L 234.140625 113.125 L 233.976562 113.289062 C 221.816406 125.402344 205.667969 132.203125 188.507812 132.429688 L 188.273438 132.433594 L 188.300781 121.382812 L 187.621094 121.386719 C 173.148438 121.386719 159.507812 115.777344 149.210938 105.597656 C 138.964844 95.46875 133.066406 81.246094 133.007812 66.546875 L 132.773438 66.539062 L 121.933594 66.539062 L 121.9375 66.304688 C 122.175781 30.324219 151.644531 1.054688 187.621094 1.054688 L 187.851562 1.054688 L 187.851562 5.929688 L 188.0625 5.929688 C 189.066406 5.9375 190.074219 5.972656 191.070312 6.027344 C 191.285156 6.039062 191.496094 6.054688 191.710938 6.074219 L 192.515625 6.136719 C 193.03125 6.175781 193.542969 6.210938 194.054688 6.265625 C 194.3125 6.292969 194.570312 6.328125 194.828125 6.363281 L 195.738281 6.476562 C 196.160156 6.53125 196.585938 6.582031 197.003906 6.644531 C 197.292969 6.691406 197.582031 6.742188 197.867188 6.796875 L 198.777344 6.960938 C 199.160156 7.023438 199.542969 7.089844 199.921875 7.167969 C 200.21875 7.230469 200.515625 7.300781 200.8125 7.371094 L 201.6875 7.570312 C 202.058594 7.652344 202.429688 7.734375 202.800781 7.828125 C 203.101562 7.90625 203.398438 7.996094 203.699219 8.082031 L 204.574219 8.328125 C 204.925781 8.421875 205.28125 8.519531 205.628906 8.628906 C 205.933594 8.722656 206.230469 8.824219 206.53125 8.925781 L 207.402344 9.21875 C 207.742188 9.328125 208.082031 9.441406 208.417969 9.5625 C 208.722656 9.675781 209.027344 9.796875 209.328125 9.914062 L 210.167969 10.242188 C 210.496094 10.371094 210.828125 10.496094 211.148438 10.632812 C 211.460938 10.761719 211.765625 10.902344 212.074219 11.039062 L 212.859375 11.390625 C 213.183594 11.535156 213.507812 11.679688 213.828125 11.832031 C 214.132812 11.976562 214.433594 12.132812 214.734375 12.285156 L 215.53125 12.691406 C 215.835938 12.847656 216.144531 13 216.449219 13.164062 C 216.75 13.328125 217.046875 13.5 217.34375 13.671875 L 218.082031 14.09375 C 218.390625 14.269531 218.699219 14.441406 219.003906 14.625 C 219.296875 14.800781 219.578125 14.984375 219.867188 15.167969 L 220.605469 15.640625 C 220.902344 15.828125 221.199219 16.015625 221.492188 16.214844 C 221.789062 16.414062 222.078125 16.621094 222.371094 16.828125 L 223.066406 17.324219 C 223.347656 17.523438 223.632812 17.71875 223.90625 17.925781 C 224.199219 18.144531 224.480469 18.367188 224.765625 18.59375 L 225.414062 19.101562 C 225.695312 19.320312 225.972656 19.539062 226.246094 19.765625 C 226.523438 19.992188 226.792969 20.226562 227.0625 20.460938 L 227.679688 20.996094 C 227.957031 21.238281 228.234375 21.476562 228.507812 21.722656 C 228.785156 21.976562 229.054688 22.234375 229.324219 22.496094 L 229.863281 23.007812 C 230.085938 23.222656 230.308594 23.433594 230.53125 23.65625 L 230.695312 23.820312 L 226.320312 28.191406 L 226.46875 28.339844 C 236.652344 38.636719 242.257812 52.277344 242.257812 66.75 C 242.257812 81.222656 236.652344 94.859375 226.46875 105.15625 Z M 242.613281 64.039062 C 242.605469 63.871094 242.589844 63.699219 242.578125 63.53125 L 242.535156 62.945312 C 242.5 62.410156 242.46875 61.878906 242.417969 61.351562 C 242.394531 61.132812 242.367188 60.914062 242.339844 60.695312 L 242.246094 59.917969 C 242.199219 59.507812 242.152344 59.097656 242.09375 58.691406 C 242.058594 58.457031 242.019531 58.222656 241.976562 57.992188 L 241.839844 57.183594 C 241.777344 56.808594 241.714844 56.433594 241.644531 56.058594 C 241.597656 55.8125 241.539062 55.570312 241.480469 55.324219 L 241.304688 54.515625 C 241.230469 54.164062 241.152344 53.8125 241.066406 53.464844 C 241.007812 53.214844 240.9375 52.972656 240.871094 52.726562 L 240.671875 52 C 240.574219 51.632812 240.480469 51.269531 240.371094 50.90625 C 240.292969 50.652344 240.210938 50.402344 240.125 50.152344 L 239.875 49.382812 C 239.773438 49.050781 239.664062 48.71875 239.550781 48.386719 C 239.457031 48.128906 239.355469 47.867188 239.253906 47.609375 L 238.996094 46.929688 C 238.871094 46.589844 238.742188 46.253906 238.605469 45.914062 C 238.503906 45.664062 238.390625 45.410156 238.28125 45.160156 L 237.976562 44.460938 C 237.835938 44.136719 237.695312 43.8125 237.546875 43.492188 C 237.429688 43.242188 237.304688 42.996094 237.179688 42.75 L 236.863281 42.109375 C 236.699219 41.777344 236.539062 41.449219 236.371094 41.121094 C 236.234375 40.867188 236.09375 40.617188 235.953125 40.367188 L 235.613281 39.761719 C 235.4375 39.441406 235.257812 39.121094 235.078125 38.808594 C 234.933594 38.566406 234.785156 38.332031 234.636719 38.09375 L 234.230469 37.441406 C 234.042969 37.144531 233.859375 36.84375 233.664062 36.550781 C 233.511719 36.316406 233.351562 36.085938 233.1875 35.855469 L 232.769531 35.253906 C 232.566406 34.953125 232.359375 34.652344 232.144531 34.359375 C 231.976562 34.128906 231.796875 33.902344 231.625 33.675781 L 231.1875 33.105469 C 230.964844 32.816406 230.742188 32.519531 230.511719 32.234375 C 230.328125 32.007812 230.140625 31.789062 229.953125 31.570312 L 229.46875 31 C 229.238281 30.722656 229.007812 30.449219 228.765625 30.179688 C 228.5625 29.949219 228.347656 29.722656 228.136719 29.496094 L 227.605469 28.925781 C 227.429688 28.734375 227.257812 28.542969 227.074219 28.359375 L 226.914062 28.195312 L 231.292969 23.8125 L 231.148438 23.667969 C 230.433594 22.945312 229.703125 22.242188 228.960938 21.5625 C 228.832031 21.445312 228.074219 20.785156 228.074219 20.785156 C 227.617188 20.375 227.15625 19.96875 226.6875 19.578125 C 226.511719 19.433594 226.335938 19.292969 226.15625 19.15625 L 225.476562 18.613281 C 225.097656 18.3125 224.722656 18.007812 224.339844 17.71875 C 224.128906 17.5625 223.917969 17.414062 223.707031 17.265625 L 223 16.761719 C 222.640625 16.5 222.277344 16.234375 221.910156 15.984375 C 221.679688 15.828125 221.449219 15.683594 221.214844 15.535156 L 220.429688 15.03125 C 220.09375 14.808594 219.753906 14.585938 219.410156 14.378906 C 219.160156 14.226562 218.902344 14.078125 218.648438 13.933594 L 217.839844 13.46875 C 217.507812 13.273438 217.179688 13.082031 216.84375 12.898438 C 216.574219 12.75 216.300781 12.613281 216.023438 12.472656 L 215.195312 12.046875 C 214.867188 11.878906 214.542969 11.707031 214.210938 11.546875 C 213.925781 11.410156 213.640625 11.28125 213.351562 11.15625 L 212.527344 10.78125 C 212.191406 10.628906 211.859375 10.472656 211.519531 10.328125 C 211.222656 10.203125 210.921875 10.085938 210.621094 9.96875 L 209.789062 9.640625 C 209.449219 9.507812 209.109375 9.371094 208.769531 9.242188 C 208.449219 9.125 208.125 9.019531 207.804688 8.910156 L 206.988281 8.636719 C 206.648438 8.519531 206.3125 8.402344 205.96875 8.292969 C 205.640625 8.191406 205.308594 8.097656 204.976562 8.003906 L 204.117188 7.757812 C 203.785156 7.664062 203.453125 7.566406 203.117188 7.480469 C 202.789062 7.394531 202.460938 7.320312 202.128906 7.242188 L 201.25 7.039062 C 200.910156 6.957031 200.566406 6.875 200.222656 6.800781 C 199.878906 6.730469 199.53125 6.667969 199.183594 6.609375 L 198.375 6.460938 C 198.011719 6.394531 197.652344 6.324219 197.289062 6.265625 C 196.945312 6.214844 196.597656 6.167969 196.25 6.125 L 195.417969 6.011719 C 195.050781 5.964844 194.6875 5.914062 194.320312 5.875 C 193.96875 5.835938 193.621094 5.808594 193.269531 5.78125 L 192.425781 5.710938 C 192.058594 5.675781 191.6875 5.644531 191.316406 5.625 C 190.960938 5.601562 190.601562 5.589844 190.246094 5.578125 L 189.339844 5.542969 C 189.0625 5.53125 188.78125 5.519531 188.5 5.515625 L 188.273438 5.511719 L 188.273438 0.644531 L 187.621094 0.632812 C 151.164062 0.632812 121.503906 30.292969 121.503906 66.75 L 121.503906 66.992188 L 132.570312 66.957031 L 132.574219 67.191406 C 132.6875 81.84375 138.492188 95.589844 148.914062 105.898438 C 159.292969 116.15625 173.035156 121.808594 187.621094 121.808594 L 187.832031 121.808594 L 187.851562 132.855469 L 188.0625 132.855469 C 205.671875 132.738281 222.195312 125.785156 234.585938 113.273438 L 234.734375 113.125 L 226.914062 105.304688 L 227.074219 105.140625 C 227.253906 104.957031 227.425781 104.769531 227.597656 104.582031 L 228.148438 103.984375 C 228.359375 103.765625 228.566406 103.542969 228.765625 103.320312 C 229.015625 103.035156 229.257812 102.75 229.5 102.460938 L 229.9375 101.945312 C 230.128906 101.71875 230.324219 101.496094 230.511719 101.261719 C 230.734375 100.988281 230.945312 100.707031 231.160156 100.425781 L 231.609375 99.84375 C 231.789062 99.609375 231.96875 99.375 232.144531 99.136719 C 232.355469 98.851562 232.554688 98.558594 232.757812 98.265625 L 233.171875 97.667969 C 233.339844 97.429688 233.503906 97.1875 233.664062 96.945312 C 233.859375 96.652344 234.046875 96.351562 234.230469 96.050781 L 234.640625 95.398438 C 234.785156 95.164062 234.933594 94.929688 235.078125 94.691406 C 235.25 94.398438 235.410156 94.101562 235.574219 93.808594 L 235.949219 93.132812 C 236.09375 92.878906 236.234375 92.628906 236.371094 92.375 C 236.53125 92.066406 236.683594 91.753906 236.835938 91.441406 L 237.191406 90.730469 C 237.3125 90.488281 237.433594 90.25 237.546875 90.003906 C 237.695312 89.683594 237.835938 89.359375 237.976562 89.035156 L 238.277344 88.347656 C 238.390625 88.09375 238.503906 87.839844 238.605469 87.582031 C 238.734375 87.269531 238.851562 86.957031 238.96875 86.644531 L 239.265625 85.871094 C 239.363281 85.617188 239.457031 85.363281 239.550781 85.109375 C 239.667969 84.773438 239.773438 84.4375 239.882812 84.101562 L 240.121094 83.363281 C 240.207031 83.105469 240.292969 82.851562 240.371094 82.589844 C 240.464844 82.261719 240.558594 81.929688 240.648438 81.597656 L 240.867188 80.78125 C 240.9375 80.53125 241.007812 80.285156 241.066406 80.035156 C 241.152344 79.691406 241.230469 79.34375 241.300781 78.996094 L 241.480469 78.179688 C 241.539062 77.933594 241.59375 77.6875 241.644531 77.4375 C 241.714844 77.070312 241.777344 76.703125 241.835938 76.332031 L 241.96875 75.558594 C 242.015625 75.308594 242.054688 75.058594 242.09375 74.808594 C 242.152344 74.40625 242.195312 74.007812 242.246094 73.605469 L 242.339844 72.804688 C 242.367188 72.585938 242.394531 72.367188 242.417969 72.144531 C 242.46875 71.621094 242.5 71.089844 242.535156 70.5625 C 242.535156 70.5625 242.605469 69.621094 242.613281 69.460938 C 242.65625 68.558594 242.675781 67.65625 242.675781 66.75 C 242.675781 65.84375 242.65625 64.9375 242.613281 64.039062 " fill-opacity="1" fill-rule="nonzero"/><path fill="#2edd99" d="M 169.382812 113.726562 L 170.539062 112.570312 C 164.125 110.203125 158.109375 106.460938 152.96875 101.316406 C 147.664062 96.015625 143.839844 89.785156 141.488281 83.144531 L 140.332031 84.300781 C 133.710938 66.40625 137.558594 45.480469 151.914062 31.125 C 166.265625 16.773438 187.195312 12.921875 205.085938 19.542969 L 203.933594 20.699219 C 210.574219 23.054688 216.800781 26.875 222.105469 32.179688 C 227.25 37.320312 230.988281 43.335938 233.359375 49.75 L 234.511719 48.59375 C 241.453125 66.621094 237.675781 87.859375 223.160156 102.375 C 208.644531 116.890625 187.40625 120.664062 169.382812 113.726562 Z M 223.859375 30.425781 C 203.832031 10.394531 171.242188 10.394531 151.210938 30.425781 C 131.183594 50.453125 131.183594 83.042969 151.214844 103.074219 C 171.242188 123.101562 203.832031 123.101562 223.859375 103.074219 C 243.890625 83.042969 243.890625 50.453125 223.859375 30.425781 " fill-opacity="1" fill-rule="nonzero"/><path fill="#2edd99" d="M 142.914062 66.75 C 142.914062 42.144531 162.933594 22.128906 187.539062 22.128906 C 212.140625 22.128906 232.160156 42.144531 232.160156 66.75 C 232.160156 91.351562 212.140625 111.371094 187.539062 111.371094 C 162.933594 111.371094 142.914062 91.351562 142.914062 66.75 Z M 219.828125 99.039062 C 224.628906 94.238281 228.128906 88.617188 230.339844 82.628906 L 231.167969 83.460938 C 233.164062 78.265625 234.265625 72.636719 234.265625 66.75 C 234.265625 40.980469 213.304688 20.019531 187.539062 20.019531 C 181.648438 20.019531 176.023438 21.125 170.824219 23.117188 L 171.65625 23.945312 C 165.667969 26.160156 160.046875 29.65625 155.246094 34.457031 C 150.292969 39.410156 146.71875 45.230469 144.519531 51.433594 L 143.6875 50.597656 C 141.824219 55.632812 140.808594 61.074219 140.808594 66.75 C 140.808594 92.515625 161.769531 113.480469 187.539062 113.480469 C 193.214844 113.480469 198.652344 112.460938 203.691406 110.601562 L 202.851562 109.761719 C 209.054688 107.566406 214.875 103.996094 219.828125 99.039062 " fill-opacity="1" fill-rule="nonzero"/><g fill="#2edd99" fill-opacity="1"><g transform="translate(148.758043, 80.555262)"><g><path d="M 38.636719 0 C 39.398438 0 39.683594 -0.476562 39.683594 -1.234375 L 39.683594 -32.03125 C 39.683594 -32.792969 39.398438 -33.265625 38.636719 -33.265625 L 34.167969 -33.265625 C 33.3125 -33.265625 32.933594 -33.125 32.601562 -32.507812 L 23.144531 -15.398438 L 12.453125 -32.269531 C 12.023438 -32.980469 11.40625 -33.265625 10.691406 -33.265625 L 2.804688 -33.265625 C 2.375 -33.265625 2.328125 -33.027344 2.328125 -32.742188 L 4.371094 -29.464844 L 4.371094 -1.234375 C 4.371094 -0.476562 4.65625 0 5.417969 0 L 11.3125 0 C 12.070312 0 12.355469 -0.476562 12.355469 -1.234375 C 12.355469 -2.136719 11.738281 -2.519531 11.214844 -3.183594 L 5.039062 -13.542969 L 5.039062 -28.371094 L 18.488281 -6.84375 L 19.246094 -6.84375 L 30.511719 -27.136719 L 30.511719 -1.234375 C 30.511719 -0.476562 30.796875 0 31.554688 0 Z M 38.636719 0 "/></g></g></g><g fill="#d9ecff" fill-opacity="1"><g transform="translate(236.547719, 146.745226)"><g><path d="M -13.441406 84 C -11.519531 84 -10.800781 82.800781 -10.800781 80.878906 L -10.800781 3.121094 C -10.800781 1.199219 -11.519531 0 -13.441406 0 L -68.160156 0 C -69.839844 0 -70.800781 1.199219 -71.519531 3.121094 L -78.960938 21.71875 C -79.199219 22.320312 -79.441406 22.921875 -78.839844 23.398438 L -77.398438 24.480469 C -77.160156 24.71875 -76.921875 24.71875 -76.679688 24.71875 C -76.320312 24.71875 -75.960938 24.480469 -75.480469 24.238281 L -43.320312 1.679688 L -31.320312 1.679688 L -31.320312 41.398438 L -64.320312 40.800781 L -64.320312 43.679688 L -31.320312 43.078125 L -31.320312 82.320312 L -43.320312 82.320312 L -63.960938 64.921875 C -65.640625 63.601562 -67.679688 62.039062 -69.359375 62.039062 L -70.078125 62.039062 C -72 62.039062 -72.71875 63.238281 -72.71875 65.160156 L -72.71875 80.878906 C -72.71875 82.800781 -72 84 -70.078125 84 Z M -13.441406 84 "/></g></g></g><g fill="#2edd99" fill-opacity="1"><g transform="translate(47.578126, 231.108309)"><g><path d="M 97.558594 0 C 99.480469 0 100.199219 -1.199219 100.199219 -3.121094 L 100.199219 -80.878906 C 100.199219 -82.800781 99.480469 -84 97.558594 -84 L 86.28125 -84 C 84.121094 -84 83.160156 -83.640625 82.320312 -82.078125 L 58.441406 -38.878906 L 31.441406 -81.480469 C 30.359375 -83.28125 28.800781 -84 27 -84 L 7.078125 -84 C 6 -84 5.878906 -83.398438 5.878906 -82.679688 L 11.039062 -74.398438 L 11.039062 -3.121094 C 11.039062 -1.199219 11.761719 0 13.679688 0 L 28.558594 0 C 30.480469 0 31.199219 -1.199219 31.199219 -3.121094 C 31.199219 -5.398438 29.640625 -6.359375 28.320312 -8.039062 L 12.71875 -34.199219 L 12.71875 -71.640625 L 46.679688 -17.28125 L 48.601562 -17.28125 L 77.039062 -68.519531 L 77.039062 -3.121094 C 77.039062 -1.199219 77.761719 0 79.679688 0 Z M 97.558594 0 "/></g></g></g><g fill="#2edd99" fill-opacity="1"><g transform="translate(158.578119, 231.108309)"><g/></g></g><g fill="#2edd99" fill-opacity="1"><g transform="translate(194.57814, 231.108309)"><g/></g></g><g fill="#2edd99" fill-opacity="1"><g transform="translate(230.578114, 231.108309)"><g><path d="M 10.800781 -3.121094 C 10.800781 -1.199219 11.519531 0 13.441406 0 L 45.839844 0 C 75 0 90.839844 -12.960938 90.839844 -42.121094 C 90.839844 -71.28125 75 -84 45.839844 -84 L 13.441406 -84 C 11.519531 -84 10.800781 -82.800781 10.800781 -80.878906 Z M 32.519531 -82.320312 L 42 -82.320312 C 55.921875 -82.320312 68.039062 -61.921875 68.039062 -42.121094 C 68.039062 -22.320312 55.921875 -1.679688 42 -1.679688 L 32.519531 -1.679688 Z M 32.519531 -82.320312 "/></g></g></g><g fill="#d9ecff" fill-opacity="1"><g transform="translate(227.924726, 45.520269)"><g><path d="M -5.359375 33.507812 C -4.59375 33.507812 -4.308594 33.027344 -4.308594 32.261719 L -4.308594 1.246094 C -4.308594 0.480469 -4.59375 0 -5.359375 0 L -27.1875 0 C -27.859375 0 -28.242188 0.480469 -28.527344 1.246094 L -31.496094 8.664062 C -31.59375 8.902344 -31.6875 9.144531 -31.449219 9.335938 L -30.875 9.765625 C -30.777344 9.859375 -30.683594 9.859375 -30.585938 9.859375 C -30.445312 9.859375 -30.300781 9.765625 -30.109375 9.667969 L -17.28125 0.671875 L -12.492188 0.671875 L -12.492188 16.515625 L -25.65625 16.273438 L -25.65625 17.421875 L -12.492188 17.183594 L -12.492188 32.835938 L -17.28125 32.835938 L -25.511719 25.894531 C -26.183594 25.371094 -26.996094 24.746094 -27.667969 24.746094 L -27.953125 24.746094 C -28.71875 24.746094 -29.007812 25.226562 -29.007812 25.992188 L -29.007812 32.261719 C -29.007812 33.027344 -28.71875 33.507812 -27.953125 33.507812 Z M -5.359375 33.507812 "/></g></g></g><g fill="#d9ecff" fill-opacity="1"><g transform="translate(88.353243, 309.774217)"><g><path d="M 17.511719 -31.5 L 4.417969 -3.4375 C 3.925781 -2.617188 4.007812 -1.882812 4.582031 -1.0625 C 4.992188 -0.328125 5.644531 0 6.546875 0 L 11.453125 0 C 12.4375 0 13.171875 -0.410156 13.664062 -1.390625 L 22.09375 -19.472656 C 22.171875 -19.71875 22.417969 -19.882812 22.746094 -19.882812 C 22.992188 -19.882812 23.15625 -19.71875 23.320312 -19.472656 L 31.746094 -1.390625 C 32.15625 -0.410156 32.890625 0 33.957031 0 L 38.867188 0 C 39.683594 0 40.339844 -0.328125 40.828125 -1.0625 C 41.320312 -1.882812 41.402344 -2.617188 40.992188 -3.4375 L 27.902344 -31.5 C 27.820312 -31.664062 27.820312 -31.828125 27.902344 -32.074219 L 39.355469 -56.539062 C 39.683594 -57.355469 39.683594 -58.175781 39.191406 -58.828125 C 38.703125 -59.566406 38.046875 -59.976562 37.230469 -59.976562 L 32.320312 -59.976562 C 31.257812 -59.976562 30.519531 -59.484375 30.109375 -58.585938 L 23.320312 -44.019531 C 23.15625 -43.691406 22.992188 -43.609375 22.746094 -43.609375 C 22.417969 -43.609375 22.171875 -43.691406 22.09375 -44.019531 L 15.300781 -58.585938 C 14.808594 -59.484375 14.074219 -59.976562 13.089844 -59.976562 L 8.183594 -59.976562 C 7.28125 -59.976562 6.628906 -59.566406 6.21875 -58.828125 C 5.726562 -58.175781 5.644531 -57.355469 6.054688 -56.539062 L 17.511719 -32.074219 C 17.511719 -31.828125 17.511719 -31.664062 17.511719 -31.5 Z M 17.511719 -31.5 "/></g></g></g><g fill="#d9ecff" fill-opacity="1"><g transform="translate(133.764303, 309.774217)"><g><path d="M 19.964844 -59.976562 L 6.464844 -59.976562 C 5.808594 -59.976562 5.238281 -59.730469 4.746094 -59.238281 C 4.253906 -58.746094 4.089844 -58.257812 4.089844 -57.601562 L 4.089844 -2.371094 C 4.089844 -1.71875 4.253906 -1.144531 4.746094 -0.65625 C 5.238281 -0.164062 5.808594 0 6.464844 0 L 10.964844 0 C 11.617188 0 12.109375 -0.164062 12.601562 -0.65625 C 13.089844 -1.144531 13.335938 -1.71875 13.335938 -2.371094 L 13.335938 -15.464844 C 13.335938 -16.117188 13.5 -16.609375 13.992188 -17.101562 C 14.484375 -17.589844 15.054688 -17.835938 15.710938 -17.835938 L 19.964844 -17.835938 C 23.726562 -17.835938 26.835938 -18.820312 29.375 -20.945312 C 31.910156 -22.992188 33.792969 -25.609375 35.101562 -28.71875 C 36.328125 -31.828125 36.984375 -35.265625 36.984375 -38.867188 C 36.984375 -42.464844 36.328125 -45.902344 35.101562 -49.011719 C 33.792969 -52.121094 31.910156 -54.738281 29.375 -56.867188 C 26.835938 -58.910156 23.726562 -59.976562 19.964844 -59.976562 Z M 20.128906 -27.082031 L 15.710938 -27.082031 C 15.054688 -27.082031 14.484375 -27.246094 13.992188 -27.738281 C 13.5 -28.226562 13.335938 -28.800781 13.335938 -29.457031 L 13.335938 -48.355469 C 13.335938 -49.011719 13.5 -49.503906 13.992188 -49.992188 C 14.484375 -50.484375 15.054688 -50.730469 15.710938 -50.730469 L 20.128906 -50.730469 C 21.847656 -50.730469 23.320312 -50.074219 24.464844 -48.929688 C 25.609375 -47.785156 26.429688 -46.3125 27 -44.59375 C 27.574219 -42.792969 27.902344 -40.910156 27.902344 -38.867188 C 27.902344 -36.820312 27.574219 -34.9375 27 -33.21875 C 26.347656 -31.417969 25.527344 -29.945312 24.382812 -28.800781 C 23.238281 -27.65625 21.765625 -27.082031 20.128906 -27.082031 Z M 20.128906 -27.082031 "/></g></g></g><g fill="#d9ecff" fill-opacity="1"><g transform="translate(174.920633, 309.774217)"><g><path d="M 19.964844 -59.976562 L 6.464844 -59.976562 C 5.808594 -59.976562 5.238281 -59.730469 4.746094 -59.238281 C 4.253906 -58.746094 4.089844 -58.257812 4.089844 -57.601562 L 4.089844 -2.371094 C 4.089844 -1.71875 4.253906 -1.144531 4.746094 -0.65625 C 5.238281 -0.164062 5.808594 0 6.464844 0 L 10.964844 0 C 11.617188 0 12.109375 -0.164062 12.601562 -0.65625 C 13.089844 -1.144531 13.335938 -1.71875 13.335938 -2.371094 L 13.335938 -15.464844 C 13.335938 -16.117188 13.5 -16.609375 13.992188 -17.101562 C 14.484375 -17.589844 15.054688 -17.835938 15.710938 -17.835938 L 18.984375 -17.835938 C 20.128906 -17.835938 20.863281 -17.265625 21.273438 -16.28125 L 26.59375 -1.554688 C 26.917969 -0.492188 27.738281 0 28.882812 0 L 33.546875 0 C 34.363281 0 35.019531 -0.328125 35.511719 -0.980469 C 36 -1.636719 36.082031 -2.371094 35.835938 -3.191406 L 29.945312 -19.390625 C 29.539062 -20.375 29.78125 -21.191406 30.601562 -21.929688 C 32.402344 -23.644531 33.875 -25.773438 34.9375 -28.390625 C 36 -30.929688 36.65625 -33.628906 36.902344 -36.492188 C 37.148438 -39.273438 36.984375 -42.136719 36.410156 -44.921875 C 35.757812 -47.703125 34.773438 -50.15625 33.382812 -52.449219 C 31.910156 -54.65625 30.109375 -56.457031 27.902344 -57.847656 C 25.609375 -59.238281 22.992188 -59.976562 19.964844 -59.976562 Z M 13.335938 -29.457031 L 13.335938 -48.355469 C 13.335938 -49.011719 13.5 -49.503906 13.992188 -49.992188 C 14.484375 -50.484375 15.054688 -50.730469 15.710938 -50.730469 L 20.128906 -50.730469 C 21.847656 -50.730469 23.320312 -50.074219 24.464844 -48.929688 C 25.609375 -47.785156 26.429688 -46.3125 27 -44.59375 C 27.574219 -42.792969 27.902344 -40.910156 27.902344 -38.867188 C 27.902344 -36.820312 27.574219 -34.9375 27 -33.21875 C 26.347656 -31.417969 25.527344 -29.945312 24.382812 -28.800781 C 23.238281 -27.65625 21.765625 -27.082031 20.128906 -27.082031 L 15.710938 -27.082031 C 15.054688 -27.082031 14.484375 -27.246094 13.992188 -27.738281 C 13.5 -28.226562 13.335938 -28.800781 13.335938 -29.457031 Z M 13.335938 -29.457031 "/></g></g></g><g fill="#d9ecff" fill-opacity="1"><g transform="translate(216.076962, 309.774217)"><g><path d="M 33.546875 -53.101562 L 33.546875 -57.601562 C 33.546875 -58.257812 33.300781 -58.746094 32.808594 -59.238281 C 32.320312 -59.730469 31.828125 -59.976562 31.175781 -59.976562 L 6.464844 -59.976562 C 5.808594 -59.976562 5.238281 -59.730469 4.746094 -59.238281 C 4.253906 -58.746094 4.089844 -58.257812 4.089844 -57.601562 L 4.089844 -2.371094 C 4.089844 -1.71875 4.253906 -1.144531 4.746094 -0.65625 C 5.238281 -0.164062 5.808594 0 6.464844 0 L 31.175781 0 C 31.828125 0 32.320312 -0.164062 32.808594 -0.65625 C 33.300781 -1.144531 33.546875 -1.71875 33.546875 -2.371094 L 33.546875 -6.871094 C 33.546875 -7.527344 33.300781 -8.019531 32.808594 -8.507812 C 32.320312 -9 31.828125 -9.246094 31.175781 -9.246094 L 15.710938 -9.246094 C 15.054688 -9.246094 14.484375 -9.410156 13.992188 -9.902344 C 13.5 -10.390625 13.335938 -10.964844 13.335938 -11.617188 L 13.335938 -29.457031 C 13.335938 -30.109375 13.5 -30.601562 13.992188 -31.09375 C 14.484375 -31.582031 15.054688 -31.828125 15.710938 -31.828125 L 25.9375 -31.828125 C 26.59375 -31.828125 27.164062 -32.074219 27.65625 -32.566406 C 28.148438 -33.054688 28.390625 -33.628906 28.390625 -34.285156 L 28.390625 -38.703125 C 28.390625 -39.355469 28.148438 -39.847656 27.65625 -40.339844 C 27.164062 -40.828125 26.59375 -41.074219 25.9375 -41.074219 L 15.710938 -41.074219 C 15.054688 -41.074219 14.484375 -41.238281 13.992188 -41.730469 C 13.5 -42.21875 13.335938 -42.792969 13.335938 -43.449219 L 13.335938 -48.355469 C 13.335938 -49.011719 13.5 -49.503906 13.992188 -49.992188 C 14.484375 -50.484375 15.054688 -50.730469 15.710938 -50.730469 L 31.175781 -50.730469 C 31.828125 -50.730469 32.320312 -50.894531 32.808594 -51.382812 C 33.300781 -51.875 33.546875 -52.449219 33.546875 -53.101562 Z M 33.546875 -53.101562 "/></g></g></g><g fill="#d9ecff" fill-opacity="1"><g transform="translate(253.71496, 309.774217)"><g><path d="M 18.738281 -59.976562 C 13.910156 -59.976562 10.308594 -58.667969 7.9375 -56.128906 C 5.480469 -53.511719 4.335938 -49.910156 4.335938 -45.246094 C 4.335938 -43.527344 4.5 -41.972656 4.828125 -40.5 C 5.15625 -39.027344 5.808594 -37.554688 6.628906 -36.082031 C 7.445312 -34.609375 8.589844 -33.136719 9.980469 -31.664062 C 11.292969 -30.191406 13.007812 -28.554688 15.054688 -26.917969 C 16.609375 -25.609375 17.917969 -24.382812 18.984375 -23.238281 C 20.046875 -22.09375 20.945312 -21.109375 21.601562 -20.128906 C 22.253906 -19.144531 22.664062 -18.164062 22.992188 -17.183594 C 23.238281 -16.199219 23.402344 -15.136719 23.402344 -14.15625 C 23.402344 -12.027344 22.910156 -10.554688 22.011719 -9.738281 C 21.109375 -8.835938 19.882812 -8.425781 18.328125 -8.425781 C 16.691406 -8.425781 15.464844 -8.835938 14.644531 -9.738281 C 13.746094 -10.554688 13.335938 -12.027344 13.335938 -14.15625 L 13.335938 -16.527344 C 13.335938 -17.019531 13.089844 -17.429688 12.765625 -17.753906 C 12.355469 -18.082031 11.945312 -18.328125 11.453125 -18.328125 L 5.890625 -18.328125 C 5.398438 -18.328125 4.910156 -18.082031 4.582031 -17.753906 C 4.253906 -17.429688 4.089844 -17.019531 4.089844 -16.527344 L 4.089844 -14.726562 C 4.089844 -9.980469 5.320312 -6.300781 7.773438 -3.765625 C 10.226562 -1.226562 13.828125 0 18.65625 0 C 23.402344 0 27 -1.226562 29.457031 -3.765625 C 31.910156 -6.300781 33.136719 -9.980469 33.136719 -14.726562 C 33.136719 -16.363281 32.890625 -18 32.566406 -19.472656 C 32.238281 -20.945312 31.664062 -22.335938 30.847656 -23.808594 C 30.027344 -25.28125 28.882812 -26.753906 27.492188 -28.226562 C 26.101562 -29.703125 24.382812 -31.335938 22.417969 -33.054688 C 20.78125 -34.363281 19.472656 -35.511719 18.410156 -36.65625 C 17.347656 -37.800781 16.527344 -38.867188 15.875 -39.847656 C 15.21875 -40.828125 14.726562 -41.730469 14.484375 -42.710938 C 14.15625 -43.691406 14.074219 -44.675781 14.074219 -45.820312 C 14.074219 -47.867188 14.484375 -49.339844 15.300781 -50.238281 C 16.117188 -51.136719 17.347656 -51.628906 18.984375 -51.628906 C 20.539062 -51.628906 21.765625 -51.136719 22.582031 -50.238281 C 23.402344 -49.339844 23.808594 -47.867188 23.808594 -45.820312 L 23.808594 -45.246094 C 23.808594 -44.675781 23.972656 -44.183594 24.300781 -43.855469 C 24.628906 -43.527344 25.121094 -43.367188 25.691406 -43.367188 L 31.175781 -43.367188 C 31.664062 -43.367188 32.15625 -43.527344 32.484375 -43.855469 C 32.808594 -44.183594 33.054688 -44.675781 33.054688 -45.246094 C 33.054688 -49.910156 31.828125 -53.511719 29.457031 -56.128906 C 27 -58.667969 23.484375 -59.976562 18.738281 -59.976562 Z M 18.738281 -59.976562 "/></g></g></g><g fill="#d9ecff" fill-opacity="1"><g transform="translate(290.943846, 309.774217)"><g><path d="M 18.738281 -59.976562 C 13.910156 -59.976562 10.308594 -58.667969 7.9375 -56.128906 C 5.480469 -53.511719 4.335938 -49.910156 4.335938 -45.246094 C 4.335938 -43.527344 4.5 -41.972656 4.828125 -40.5 C 5.15625 -39.027344 5.808594 -37.554688 6.628906 -36.082031 C 7.445312 -34.609375 8.589844 -33.136719 9.980469 -31.664062 C 11.292969 -30.191406 13.007812 -28.554688 15.054688 -26.917969 C 16.609375 -25.609375 17.917969 -24.382812 18.984375 -23.238281 C 20.046875 -22.09375 20.945312 -21.109375 21.601562 -20.128906 C 22.253906 -19.144531 22.664062 -18.164062 22.992188 -17.183594 C 23.238281 -16.199219 23.402344 -15.136719 23.402344 -14.15625 C 23.402344 -12.027344 22.910156 -10.554688 22.011719 -9.738281 C 21.109375 -8.835938 19.882812 -8.425781 18.328125 -8.425781 C 16.691406 -8.425781 15.464844 -8.835938 14.644531 -9.738281 C 13.746094 -10.554688 13.335938 -12.027344 13.335938 -14.15625 L 13.335938 -16.527344 C 13.335938 -17.019531 13.089844 -17.429688 12.765625 -17.753906 C 12.355469 -18.082031 11.945312 -18.328125 11.453125 -18.328125 L 5.890625 -18.328125 C 5.398438 -18.328125 4.910156 -18.082031 4.582031 -17.753906 C 4.253906 -17.429688 4.089844 -17.019531 4.089844 -16.527344 L 4.089844 -14.726562 C 4.089844 -9.980469 5.320312 -6.300781 7.773438 -3.765625 C 10.226562 -1.226562 13.828125 0 18.65625 0 C 23.402344 0 27 -1.226562 29.457031 -3.765625 C 31.910156 -6.300781 33.136719 -9.980469 33.136719 -14.726562 C 33.136719 -16.363281 32.890625 -18 32.566406 -19.472656 C 32.238281 -20.945312 31.664062 -22.335938 30.847656 -23.808594 C 30.027344 -25.28125 28.882812 -26.753906 27.492188 -28.226562 C 26.101562 -29.703125 24.382812 -31.335938 22.417969 -33.054688 C 20.78125 -34.363281 19.472656 -35.511719 18.410156 -36.65625 C 17.347656 -37.800781 16.527344 -38.867188 15.875 -39.847656 C 15.21875 -40.828125 14.726562 -41.730469 14.484375 -42.710938 C 14.15625 -43.691406 14.074219 -44.675781 14.074219 -45.820312 C 14.074219 -47.867188 14.484375 -49.339844 15.300781 -50.238281 C 16.117188 -51.136719 17.347656 -51.628906 18.984375 -51.628906 C 20.539062 -51.628906 21.765625 -51.136719 22.582031 -50.238281 C 23.402344 -49.339844 23.808594 -47.867188 23.808594 -45.820312 L 23.808594 -45.246094 C 23.808594 -44.675781 23.972656 -44.183594 24.300781 -43.855469 C 24.628906 -43.527344 25.121094 -43.367188 25.691406 -43.367188 L 31.175781 -43.367188 C 31.664062 -43.367188 32.15625 -43.527344 32.484375 -43.855469 C 32.808594 -44.183594 33.054688 -44.675781 33.054688 -45.246094 C 33.054688 -49.910156 31.828125 -53.511719 29.457031 -56.128906 C 27 -58.667969 23.484375 -59.976562 18.738281 -59.976562 Z M 18.738281 -59.976562 "/></g></g></g><g fill="#2edd99" fill-opacity="1"><g transform="translate(54.618318, 309.584558)"><g><path d="M 33.527344 -53.070312 L 33.527344 -57.566406 C 33.527344 -58.21875 33.28125 -58.710938 32.789062 -59.203125 C 32.300781 -59.691406 31.808594 -59.9375 31.15625 -59.9375 L 6.460938 -59.9375 C 5.804688 -59.9375 5.234375 -59.691406 4.742188 -59.203125 C 4.253906 -58.710938 4.089844 -58.21875 4.089844 -57.566406 L 4.089844 -2.371094 C 4.089844 -1.71875 4.253906 -1.144531 4.742188 -0.652344 C 5.234375 -0.164062 5.804688 0 6.460938 0 L 31.15625 0 C 31.808594 0 32.300781 -0.164062 32.789062 -0.652344 C 33.28125 -1.144531 33.527344 -1.71875 33.527344 -2.371094 L 33.527344 -6.867188 C 33.527344 -7.523438 33.28125 -8.011719 32.789062 -8.503906 C 32.300781 -8.996094 31.808594 -9.238281 31.15625 -9.238281 L 15.699219 -9.238281 C 15.046875 -9.238281 14.472656 -9.402344 13.984375 -9.894531 C 13.492188 -10.386719 13.328125 -10.957031 13.328125 -11.609375 L 13.328125 -29.4375 C 13.328125 -30.089844 13.492188 -30.582031 13.984375 -31.074219 C 14.472656 -31.5625 15.046875 -31.808594 15.699219 -31.808594 L 25.921875 -31.808594 C 26.574219 -31.808594 27.148438 -32.054688 27.636719 -32.542969 C 28.128906 -33.035156 28.375 -33.605469 28.375 -34.261719 L 28.375 -38.675781 C 28.375 -39.332031 28.128906 -39.820312 27.636719 -40.3125 C 27.148438 -40.804688 26.574219 -41.046875 25.921875 -41.046875 L 15.699219 -41.046875 C 15.046875 -41.046875 14.472656 -41.210938 13.984375 -41.703125 C 13.492188 -42.191406 13.328125 -42.765625 13.328125 -43.417969 L 13.328125 -48.324219 C 13.328125 -48.980469 13.492188 -49.472656 13.984375 -49.960938 C 14.472656 -50.453125 15.046875 -50.699219 15.699219 -50.699219 L 31.15625 -50.699219 C 31.808594 -50.699219 32.300781 -50.859375 32.789062 -51.351562 C 33.28125 -51.84375 33.527344 -52.414062 33.527344 -53.070312 Z M 33.527344 -53.070312 "/></g></g></g><g fill="#2edd99" fill-opacity="1"><g transform="translate(215.210717, 308.488798)"><g><path d="M 33.527344 -53.070312 L 33.527344 -57.566406 C 33.527344 -58.21875 33.28125 -58.710938 32.789062 -59.203125 C 32.300781 -59.691406 31.808594 -59.9375 31.15625 -59.9375 L 6.460938 -59.9375 C 5.804688 -59.9375 5.234375 -59.691406 4.742188 -59.203125 C 4.253906 -58.710938 4.089844 -58.21875 4.089844 -57.566406 L 4.089844 -2.371094 C 4.089844 -1.71875 4.253906 -1.144531 4.742188 -0.652344 C 5.234375 -0.164062 5.804688 0 6.460938 0 L 31.15625 0 C 31.808594 0 32.300781 -0.164062 32.789062 -0.652344 C 33.28125 -1.144531 33.527344 -1.71875 33.527344 -2.371094 L 33.527344 -6.867188 C 33.527344 -7.523438 33.28125 -8.011719 32.789062 -8.503906 C 32.300781 -8.996094 31.808594 -9.238281 31.15625 -9.238281 L 15.699219 -9.238281 C 15.046875 -9.238281 14.472656 -9.402344 13.984375 -9.894531 C 13.492188 -10.386719 13.328125 -10.957031 13.328125 -11.609375 L 13.328125 -29.4375 C 13.328125 -30.089844 13.492188 -30.582031 13.984375 -31.074219 C 14.472656 -31.5625 15.046875 -31.808594 15.699219 -31.808594 L 25.921875 -31.808594 C 26.574219 -31.808594 27.148438 -32.054688 27.636719 -32.542969 C 28.128906 -33.035156 28.375 -33.605469 28.375 -34.261719 L 28.375 -38.675781 C 28.375 -39.332031 28.128906 -39.820312 27.636719 -40.3125 C 27.148438 -40.804688 26.574219 -41.046875 25.921875 -41.046875 L 15.699219 -41.046875 C 15.046875 -41.046875 14.472656 -41.210938 13.984375 -41.703125 C 13.492188 -42.191406 13.328125 -42.765625 13.328125 -43.417969 L 13.328125 -48.324219 C 13.328125 -48.980469 13.492188 -49.472656 13.984375 -49.960938 C 14.472656 -50.453125 15.046875 -50.699219 15.699219 -50.699219 L 31.15625 -50.699219 C 31.808594 -50.699219 32.300781 -50.859375 32.789062 -51.351562 C 33.28125 -51.84375 33.527344 -52.414062 33.527344 -53.070312 Z M 33.527344 -53.070312 "/></g></g></g><g fill="#d9ecff" fill-opacity="1"><g transform="translate(55.640768, 309.429296)"><g><path d="M 33.523438 -53.066406 L 33.523438 -57.5625 C 33.523438 -58.214844 33.277344 -58.707031 32.789062 -59.199219 C 32.296875 -59.6875 31.804688 -59.933594 31.152344 -59.933594 L 6.460938 -59.933594 C 5.804688 -59.933594 5.234375 -59.6875 4.742188 -59.199219 C 4.25 -58.707031 4.089844 -58.214844 4.089844 -57.5625 L 4.089844 -2.371094 C 4.089844 -1.71875 4.25 -1.144531 4.742188 -0.652344 C 5.234375 -0.164062 5.804688 0 6.460938 0 L 31.152344 0 C 31.804688 0 32.296875 -0.164062 32.789062 -0.652344 C 33.277344 -1.144531 33.523438 -1.71875 33.523438 -2.371094 L 33.523438 -6.867188 C 33.523438 -7.523438 33.277344 -8.011719 32.789062 -8.503906 C 32.296875 -8.996094 31.804688 -9.238281 31.152344 -9.238281 L 15.699219 -9.238281 C 15.042969 -9.238281 14.472656 -9.402344 13.980469 -9.894531 C 13.492188 -10.382812 13.328125 -10.957031 13.328125 -11.609375 L 13.328125 -29.433594 C 13.328125 -30.089844 13.492188 -30.582031 13.980469 -31.070312 C 14.472656 -31.5625 15.042969 -31.804688 15.699219 -31.804688 L 25.917969 -31.804688 C 26.574219 -31.804688 27.144531 -32.050781 27.636719 -32.542969 C 28.128906 -33.03125 28.371094 -33.605469 28.371094 -34.257812 L 28.371094 -38.675781 C 28.371094 -39.328125 28.128906 -39.820312 27.636719 -40.308594 C 27.144531 -40.800781 26.574219 -41.046875 25.917969 -41.046875 L 15.699219 -41.046875 C 15.042969 -41.046875 14.472656 -41.210938 13.980469 -41.699219 C 13.492188 -42.191406 13.328125 -42.761719 13.328125 -43.417969 L 13.328125 -48.324219 C 13.328125 -48.976562 13.492188 -49.46875 13.980469 -49.957031 C 14.472656 -50.449219 15.042969 -50.695312 15.699219 -50.695312 L 31.152344 -50.695312 C 31.804688 -50.695312 32.296875 -50.859375 32.789062 -51.347656 C 33.277344 -51.839844 33.523438 -52.410156 33.523438 -53.066406 Z M 33.523438 -53.066406 "/></g></g></g></svg>