<svg xmlns="http://www.w3.org/2000/svg" xmlns:xlink="http://www.w3.org/1999/xlink" width="500" zoomAndPan="magnify" viewBox="0 0 375 374.999991" height="500" preserveAspectRatio="xMidYMid meet" version="1.0"><defs><g/><clipPath id="215902d3f6"><path d="M 74 131.171875 L 77 131.171875 L 77 135 L 74 135 Z M 74 131.171875 " clip-rule="nonzero"/></clipPath><clipPath id="bede4cda40"><path d="M 81 131.171875 L 127 131.171875 L 127 164 L 81 164 Z M 81 131.171875 " clip-rule="nonzero"/></clipPath><clipPath id="437db0134c"><path d="M 126 166 L 136.617188 166 L 136.617188 194 L 126 194 Z M 126 166 " clip-rule="nonzero"/></clipPath><clipPath id="6e3d7dc909"><path d="M 116 198 L 136.617188 198 L 136.617188 241 L 116 241 Z M 116 198 " clip-rule="nonzero"/></clipPath><clipPath id="aded35da0b"><path d="M 6.117188 198 L 31 198 L 31 246 L 6.117188 246 Z M 6.117188 198 " clip-rule="nonzero"/></clipPath><clipPath id="8424f63942"><path d="M 40.699219 251.027344 L 68.757812 251.027344 L 68.757812 261.660156 L 40.699219 261.660156 Z M 40.699219 251.027344 " clip-rule="nonzero"/></clipPath><clipPath id="12dbb382a6"><path d="M 6.117188 131.171875 L 126 131.171875 L 126 261.671875 L 6.117188 261.671875 Z M 6.117188 131.171875 " clip-rule="nonzero"/></clipPath></defs><g clip-path="url(#215902d3f6)"><path fill="#2edd99" d="M 76.300781 131.328125 C 75.589844 131.273438 74.886719 131.214844 74.171875 131.183594 C 74.191406 132.351562 74.214844 133.519531 74.226562 134.683594 C 74.871094 134.714844 75.507812 134.769531 76.144531 134.820312 C 76.183594 133.65625 76.238281 132.492188 76.300781 131.328125 " fill-opacity="1" fill-rule="nonzero"/></g><g clip-path="url(#bede4cda40)"><path fill="#2edd99" d="M 126.765625 161.90625 C 116.867188 146.089844 100.394531 134.789062 81.195312 131.875 C 81.136719 133.046875 81.085938 134.21875 81.050781 135.390625 C 99.085938 138.242188 114.542969 148.925781 123.839844 163.828125 C 124.808594 163.179688 125.785156 162.539062 126.765625 161.90625 " fill-opacity="1" fill-rule="nonzero"/></g><g clip-path="url(#437db0134c)"><path fill="#2edd99" d="M 136.613281 193.832031 C 136.226562 183.882812 133.59375 174.503906 129.21875 166.171875 C 128.234375 166.8125 127.253906 167.453125 126.28125 168.105469 C 130.300781 175.871094 132.710938 184.59375 133.097656 193.832031 L 136.613281 193.832031 " fill-opacity="1" fill-rule="nonzero"/></g><g clip-path="url(#6e3d7dc909)"><path fill="#2edd99" d="M 133.121094 198.753906 C 132.554688 213.945312 126.484375 227.753906 116.839844 238.234375 C 117.71875 238.996094 118.628906 239.734375 119.535156 240.472656 C 129.683594 229.386719 136.050781 214.796875 136.617188 198.753906 L 133.121094 198.753906 " fill-opacity="1" fill-rule="nonzero"/></g><g clip-path="url(#aded35da0b)"><path fill="#2edd99" d="M 28.082031 245.261719 C 28.808594 244.347656 29.542969 243.441406 30.261719 242.519531 C 18.179688 231.738281 10.339844 216.292969 9.621094 199.035156 C 8.453125 199.003906 7.285156 198.976562 6.117188 198.960938 C 6.828125 217.355469 15.183594 233.816406 28.082031 245.261719 " fill-opacity="1" fill-rule="nonzero"/></g><path fill="#2edd99" d="M 31.855469 248.375 C 33.378906 249.535156 34.953125 250.632812 36.578125 251.65625 C 37.203125 250.671875 37.828125 249.691406 38.449219 248.703125 C 36.933594 247.742188 35.457031 246.71875 34.03125 245.632812 C 33.3125 246.550781 32.578125 247.457031 31.855469 248.375 " fill-opacity="1" fill-rule="nonzero"/><g clip-path="url(#8424f63942)"><path fill="#2edd99" d="M 42.71875 251.15625 C 42.097656 252.144531 41.464844 253.128906 40.84375 254.117188 C 49.171875 258.542969 58.566406 261.234375 68.539062 261.660156 C 68.566406 260.496094 68.617188 259.328125 68.707031 258.164062 C 59.359375 257.769531 50.546875 255.269531 42.71875 251.15625 " fill-opacity="1" fill-rule="nonzero"/></g><path fill="#2edd99" d="M 24.121094 165.390625 L 20.6875 163.007812 C 20.488281 163.296875 20.292969 163.585938 20.097656 163.878906 L 23.550781 166.273438 C 23.738281 165.976562 23.929688 165.679688 24.121094 165.390625 " fill-opacity="1" fill-rule="nonzero"/><path fill="#2edd99" d="M 32.128906 155.75 L 29.359375 152.804688 C 29.105469 153.046875 28.855469 153.292969 28.605469 153.535156 L 31.371094 156.472656 C 31.617188 156.226562 31.878906 155.992188 32.128906 155.75 " fill-opacity="1" fill-rule="nonzero"/><path fill="#2edd99" d="M 42.089844 148.050781 L 39.996094 144.605469 C 39.699219 144.789062 39.40625 144.980469 39.109375 145.167969 L 41.207031 148.617188 C 41.5 148.429688 41.789062 148.230469 42.089844 148.050781 " fill-opacity="1" fill-rule="nonzero"/><path fill="#2edd99" d="M 65.757812 140.144531 L 65.183594 135.679688 C 64.835938 135.726562 64.488281 135.773438 64.144531 135.824219 L 64.71875 140.269531 C 65.0625 140.230469 65.410156 140.179688 65.757812 140.144531 " fill-opacity="1" fill-rule="nonzero"/><path fill="#2edd99" d="M 53.445312 142.792969 L 52.054688 138.832031 C 51.722656 138.949219 51.394531 139.070312 51.066406 139.191406 L 52.449219 143.128906 C 52.78125 143.015625 53.113281 142.90625 53.445312 142.792969 " fill-opacity="1" fill-rule="nonzero"/><path fill="#2edd99" d="M 103.863281 242.667969 L 106.277344 245.640625 C 106.539062 245.4375 106.800781 245.226562 107.058594 245.019531 L 104.679688 242.085938 C 104.410156 242.285156 104.136719 242.476562 103.863281 242.667969 " fill-opacity="1" fill-rule="nonzero"/><path fill="#2edd99" d="M 93.730469 248.359375 L 95.714844 252.226562 C 96.015625 252.082031 96.3125 251.9375 96.609375 251.785156 L 94.644531 247.945312 C 94.339844 248.085938 94.039062 248.226562 93.730469 248.359375 " fill-opacity="1" fill-rule="nonzero"/><path fill="#2edd99" d="M 82.695312 251.839844 L 83.964844 256.535156 C 84.289062 256.453125 84.609375 256.367188 84.929688 256.28125 L 83.667969 251.617188 C 83.34375 251.6875 83.019531 251.769531 82.695312 251.839844 " fill-opacity="1" fill-rule="nonzero"/><path fill="#2edd99" d="M 15.339844 188.773438 L 10.578125 187.902344 C 10.519531 188.246094 10.460938 188.59375 10.402344 188.9375 L 15.207031 189.820312 C 15.25 189.46875 15.292969 189.121094 15.339844 188.773438 " fill-opacity="1" fill-rule="nonzero"/><path fill="#2edd99" d="M 18.453125 176.476562 L 14.363281 174.761719 C 14.230469 175.085938 14.101562 175.414062 13.976562 175.742188 L 18.085938 177.464844 C 18.207031 177.132812 18.328125 176.804688 18.453125 176.476562 " fill-opacity="1" fill-rule="nonzero"/><g clip-path="url(#12dbb382a6)"><path fill="#2edd99" d="M 109.421875 233.96875 L 109.277344 234.113281 L 116.921875 241.757812 L 116.761719 241.917969 C 104.875 253.757812 89.089844 260.40625 72.316406 260.625 L 72.085938 260.628906 L 72.113281 249.828125 L 71.445312 249.832031 C 57.300781 249.832031 43.96875 244.351562 33.902344 234.398438 C 23.886719 224.496094 18.121094 210.59375 18.0625 196.222656 L 17.832031 196.21875 L 7.238281 196.21875 L 7.238281 195.988281 C 7.472656 160.816406 36.277344 132.203125 71.445312 132.203125 L 71.675781 132.203125 L 71.675781 136.96875 L 71.878906 136.972656 C 72.863281 136.976562 73.84375 137.011719 74.820312 137.0625 C 75.03125 137.074219 75.238281 137.09375 75.445312 137.113281 L 76.234375 137.171875 C 76.734375 137.207031 77.238281 137.246094 77.738281 137.296875 C 77.992188 137.324219 78.242188 137.359375 78.492188 137.390625 L 79.382812 137.507812 C 79.796875 137.554688 80.210938 137.605469 80.621094 137.667969 C 80.902344 137.714844 81.183594 137.765625 81.460938 137.816406 L 82.355469 137.976562 C 82.726562 138.039062 83.101562 138.105469 83.472656 138.179688 C 83.765625 138.242188 84.054688 138.308594 84.34375 138.378906 L 85.199219 138.574219 C 85.5625 138.65625 85.925781 138.734375 86.285156 138.828125 C 86.578125 138.902344 86.871094 138.988281 87.167969 139.070312 L 88.019531 139.3125 C 88.363281 139.40625 88.710938 139.503906 89.054688 139.609375 C 89.347656 139.699219 89.640625 139.796875 89.933594 139.898438 L 90.785156 140.183594 C 91.117188 140.292969 91.449219 140.402344 91.777344 140.523438 C 92.074219 140.628906 92.375 140.75 92.667969 140.867188 L 93.488281 141.1875 C 93.8125 141.308594 94.132812 141.433594 94.449219 141.566406 C 94.753906 141.691406 95.050781 141.828125 95.351562 141.964844 L 96.117188 142.308594 C 96.4375 142.449219 96.753906 142.589844 97.066406 142.738281 C 97.363281 142.882812 97.660156 143.03125 97.949219 143.183594 L 98.730469 143.582031 C 99.03125 143.730469 99.332031 143.882812 99.628906 144.042969 C 99.921875 144.203125 100.210938 144.371094 100.503906 144.539062 L 101.222656 144.949219 C 101.527344 145.121094 101.828125 145.292969 102.128906 145.46875 C 102.410156 145.640625 102.6875 145.820312 102.96875 146 L 103.691406 146.460938 C 103.980469 146.644531 104.273438 146.832031 104.558594 147.023438 C 104.847656 147.21875 105.132812 147.421875 105.414062 147.625 L 106.097656 148.109375 C 106.371094 148.300781 106.648438 148.496094 106.917969 148.699219 C 107.203125 148.910156 107.480469 149.128906 107.757812 149.347656 L 108.394531 149.847656 C 108.664062 150.058594 108.9375 150.273438 109.207031 150.496094 C 109.476562 150.714844 109.738281 150.945312 110.003906 151.175781 L 110.605469 151.699219 C 110.878906 151.933594 111.152344 152.167969 111.417969 152.410156 C 111.6875 152.65625 111.949219 152.910156 112.214844 153.164062 L 112.738281 153.664062 C 112.957031 153.875 113.175781 154.082031 113.394531 154.296875 L 113.554688 154.457031 L 109.277344 158.730469 L 109.421875 158.875 C 119.378906 168.941406 124.859375 182.277344 124.859375 196.421875 C 124.859375 210.570312 119.378906 223.902344 109.421875 233.96875 Z M 125.203125 193.773438 C 125.195312 193.609375 125.183594 193.441406 125.167969 193.277344 L 125.128906 192.703125 C 125.09375 192.183594 125.0625 191.664062 125.011719 191.144531 C 124.992188 190.933594 124.964844 190.71875 124.9375 190.503906 L 124.84375 189.746094 C 124.800781 189.34375 124.753906 188.941406 124.695312 188.546875 C 124.664062 188.316406 124.621094 188.089844 124.582031 187.863281 L 124.449219 187.070312 C 124.386719 186.703125 124.328125 186.335938 124.257812 185.972656 C 124.210938 185.734375 124.152344 185.492188 124.097656 185.257812 L 123.925781 184.464844 C 123.851562 184.121094 123.777344 183.777344 123.695312 183.4375 C 123.632812 183.195312 123.566406 182.957031 123.503906 182.714844 L 123.308594 182.003906 C 123.210938 181.648438 123.117188 181.289062 123.011719 180.9375 C 122.9375 180.6875 122.855469 180.441406 122.773438 180.199219 L 122.53125 179.445312 C 122.425781 179.121094 122.320312 178.796875 122.210938 178.472656 C 122.117188 178.21875 122.019531 177.964844 121.921875 177.714844 L 121.667969 177.046875 C 121.542969 176.714844 121.421875 176.386719 121.289062 176.058594 C 121.1875 175.808594 121.078125 175.566406 120.96875 175.320312 L 120.671875 174.632812 C 120.535156 174.316406 120.398438 174 120.25 173.6875 C 120.136719 173.445312 120.015625 173.203125 119.894531 172.964844 L 119.582031 172.335938 C 119.425781 172.011719 119.269531 171.691406 119.101562 171.371094 C 118.96875 171.125 118.832031 170.878906 118.691406 170.636719 L 118.359375 170.042969 C 118.191406 169.730469 118.015625 169.414062 117.835938 169.109375 C 117.695312 168.875 117.550781 168.644531 117.40625 168.414062 L 117.007812 167.773438 C 116.828125 167.484375 116.648438 167.191406 116.457031 166.902344 C 116.308594 166.675781 116.152344 166.449219 115.992188 166.226562 L 115.582031 165.632812 C 115.382812 165.339844 115.179688 165.046875 114.96875 164.761719 C 114.804688 164.535156 114.632812 164.3125 114.460938 164.09375 L 114.035156 163.535156 C 113.816406 163.25 113.601562 162.964844 113.375 162.683594 C 113.195312 162.464844 113.011719 162.25 112.828125 162.035156 L 112.355469 161.476562 C 112.128906 161.207031 111.902344 160.9375 111.667969 160.675781 C 111.46875 160.449219 111.257812 160.230469 111.050781 160.007812 L 110.535156 159.449219 C 110.363281 159.261719 110.191406 159.074219 110.015625 158.894531 L 109.859375 158.734375 L 114.140625 154.453125 L 113.996094 154.308594 C 113.296875 153.601562 112.585938 152.917969 111.859375 152.25 C 111.734375 152.136719 110.992188 151.492188 110.992188 151.492188 C 110.542969 151.089844 110.097656 150.695312 109.636719 150.3125 C 109.464844 150.167969 109.292969 150.03125 109.117188 149.898438 L 108.453125 149.371094 C 108.085938 149.074219 107.714844 148.777344 107.339844 148.496094 C 107.136719 148.34375 106.929688 148.195312 106.722656 148.050781 L 106.035156 147.558594 C 105.679688 147.300781 105.328125 147.042969 104.96875 146.800781 C 104.742188 146.648438 104.515625 146.503906 104.289062 146.359375 L 103.519531 145.867188 C 103.191406 145.648438 102.859375 145.433594 102.519531 145.226562 C 102.277344 145.078125 102.027344 144.9375 101.78125 144.796875 L 100.988281 144.339844 C 100.664062 144.148438 100.34375 143.960938 100.015625 143.78125 C 99.75 143.636719 99.484375 143.503906 99.210938 143.367188 L 98.402344 142.949219 C 98.082031 142.785156 97.761719 142.617188 97.441406 142.460938 C 97.164062 142.328125 96.882812 142.203125 96.601562 142.078125 L 95.792969 141.710938 C 95.464844 141.5625 95.140625 141.410156 94.808594 141.269531 C 94.519531 141.148438 94.226562 141.035156 93.929688 140.921875 L 93.117188 140.597656 C 92.785156 140.464844 92.453125 140.332031 92.121094 140.210938 C 91.808594 140.09375 91.492188 139.988281 91.175781 139.882812 L 90.382812 139.613281 C 90.046875 139.5 89.71875 139.386719 89.382812 139.28125 C 89.0625 139.179688 88.738281 139.089844 88.414062 139 L 87.574219 138.757812 C 87.25 138.664062 86.925781 138.570312 86.597656 138.484375 C 86.277344 138.402344 85.953125 138.328125 85.628906 138.253906 L 84.769531 138.050781 C 84.4375 137.972656 84.101562 137.894531 83.765625 137.824219 C 83.429688 137.753906 83.089844 137.691406 82.75 137.632812 L 81.957031 137.488281 C 81.605469 137.421875 81.253906 137.355469 80.898438 137.300781 C 80.5625 137.246094 80.222656 137.203125 79.886719 137.160156 L 79.070312 137.050781 C 78.710938 137.003906 78.355469 136.953125 77.996094 136.914062 C 77.65625 136.878906 77.3125 136.851562 76.972656 136.824219 L 76.144531 136.753906 C 75.785156 136.722656 75.421875 136.691406 75.0625 136.671875 C 74.710938 136.648438 74.363281 136.640625 74.011719 136.625 L 73.128906 136.59375 C 72.855469 136.582031 72.582031 136.566406 72.308594 136.5625 L 72.085938 136.5625 L 72.085938 131.804688 L 71.445312 131.792969 C 35.808594 131.792969 6.816406 160.785156 6.816406 196.421875 L 6.816406 196.660156 L 17.636719 196.628906 L 17.636719 196.855469 C 17.75 211.179688 23.421875 224.617188 33.613281 234.691406 C 43.753906 244.71875 57.191406 250.242188 71.445312 250.242188 L 71.65625 250.242188 L 71.675781 261.042969 L 71.878906 261.042969 C 89.09375 260.929688 105.246094 254.128906 117.359375 241.902344 L 117.5 241.757812 L 109.859375 234.113281 L 110.015625 233.953125 C 110.1875 233.773438 110.355469 233.589844 110.523438 233.40625 L 111.066406 232.820312 C 111.269531 232.605469 111.472656 232.390625 111.667969 232.171875 C 111.914062 231.894531 112.152344 231.613281 112.382812 231.332031 L 112.8125 230.828125 C 113.003906 230.605469 113.191406 230.386719 113.375 230.160156 C 113.59375 229.890625 113.800781 229.617188 114.011719 229.34375 L 114.445312 228.773438 C 114.621094 228.546875 114.800781 228.316406 114.96875 228.082031 C 115.175781 227.800781 115.371094 227.515625 115.570312 227.230469 L 115.976562 226.644531 C 116.136719 226.414062 116.300781 226.179688 116.457031 225.941406 C 116.648438 225.652344 116.828125 225.359375 117.011719 225.066406 L 117.410156 224.429688 C 117.554688 224.199219 117.695312 223.96875 117.835938 223.734375 C 118.003906 223.449219 118.164062 223.160156 118.324219 222.871094 L 118.691406 222.210938 C 118.832031 221.964844 118.96875 221.722656 119.101562 221.472656 C 119.257812 221.171875 119.410156 220.867188 119.558594 220.5625 L 119.902344 219.863281 C 120.023438 219.628906 120.140625 219.394531 120.25 219.15625 C 120.398438 218.84375 120.535156 218.527344 120.671875 218.207031 L 120.964844 217.535156 C 121.074219 217.285156 121.1875 217.039062 121.289062 216.785156 C 121.414062 216.484375 121.527344 216.175781 121.644531 215.871094 L 121.929688 215.113281 C 122.027344 214.867188 122.121094 214.621094 122.210938 214.367188 C 122.324219 214.042969 122.429688 213.714844 122.535156 213.386719 L 122.769531 212.664062 C 122.851562 212.410156 122.9375 212.164062 123.011719 211.910156 C 123.105469 211.585938 123.195312 211.261719 123.28125 210.9375 L 123.5 210.136719 C 123.566406 209.894531 123.632812 209.652344 123.695312 209.410156 C 123.777344 209.074219 123.851562 208.734375 123.921875 208.394531 L 124.097656 207.597656 C 124.152344 207.355469 124.207031 207.117188 124.257812 206.871094 C 124.328125 206.511719 124.386719 206.152344 124.445312 205.792969 L 124.574219 205.035156 C 124.617188 204.789062 124.660156 204.546875 124.695312 204.300781 C 124.753906 203.910156 124.796875 203.515625 124.84375 203.125 L 124.9375 202.34375 C 124.964844 202.128906 124.992188 201.914062 125.011719 201.699219 C 125.0625 201.183594 125.09375 200.667969 125.128906 200.148438 C 125.128906 200.148438 125.195312 199.230469 125.203125 199.074219 C 125.246094 198.191406 125.265625 197.308594 125.265625 196.421875 C 125.265625 195.535156 125.246094 194.652344 125.203125 193.773438 " fill-opacity="1" fill-rule="nonzero"/></g><path fill="#2edd99" d="M 53.617188 242.34375 L 54.75 241.214844 C 48.480469 238.898438 42.597656 235.242188 37.574219 230.214844 C 32.386719 225.03125 28.652344 218.941406 26.351562 212.449219 L 25.222656 213.582031 C 18.746094 196.085938 22.511719 175.628906 36.542969 161.597656 C 50.574219 147.566406 71.03125 143.804688 88.523438 150.277344 L 87.394531 151.410156 C 93.882812 153.707031 99.972656 157.445312 105.15625 162.628906 C 110.183594 167.65625 113.84375 173.535156 116.15625 179.804688 L 117.285156 178.675781 C 124.070312 196.296875 120.378906 217.058594 106.1875 231.246094 C 92 245.4375 71.238281 249.125 53.617188 242.34375 Z M 106.871094 160.914062 C 87.292969 141.335938 55.4375 141.335938 35.855469 160.914062 C 16.28125 180.492188 16.28125 212.351562 35.859375 231.929688 C 55.4375 251.507812 87.296875 251.507812 106.871094 231.929688 C 126.453125 212.351562 126.453125 180.492188 106.871094 160.914062 " fill-opacity="1" fill-rule="nonzero"/><path fill="#2edd99" d="M 27.746094 196.421875 C 27.746094 172.371094 47.316406 152.804688 71.367188 152.804688 C 95.417969 152.804688 114.984375 172.371094 114.984375 196.421875 C 114.984375 220.472656 95.417969 240.042969 71.367188 240.042969 C 47.316406 240.042969 27.746094 220.472656 27.746094 196.421875 Z M 102.929688 227.988281 C 107.625 223.292969 111.042969 217.800781 113.207031 211.945312 L 114.015625 212.757812 C 115.96875 207.679688 117.046875 202.175781 117.046875 196.421875 C 117.046875 171.234375 96.554688 150.742188 71.367188 150.742188 C 65.613281 150.742188 60.109375 151.820312 55.03125 153.773438 L 55.839844 154.582031 C 49.988281 156.746094 44.496094 160.160156 39.800781 164.855469 C 34.957031 169.699219 31.464844 175.386719 29.316406 181.453125 L 28.5 180.632812 C 26.679688 185.558594 25.6875 190.875 25.6875 196.421875 C 25.6875 221.613281 46.179688 242.101562 71.367188 242.101562 C 76.914062 242.101562 82.230469 241.105469 87.15625 239.289062 L 86.335938 238.46875 C 92.398438 236.324219 98.089844 232.832031 102.929688 227.988281 " fill-opacity="1" fill-rule="nonzero"/><g fill="#2edd99" fill-opacity="1"><g transform="translate(30.827515, 214.85688)"><g><path d="M 40.644531 0 C 41.445312 0 41.746094 -0.5 41.746094 -1.300781 L 41.746094 -33.695312 C 41.746094 -34.496094 41.445312 -34.996094 40.644531 -34.996094 L 35.945312 -34.996094 C 35.046875 -34.996094 34.648438 -34.847656 34.296875 -34.195312 L 24.347656 -16.199219 L 13.097656 -33.945312 C 12.648438 -34.695312 12 -34.996094 11.25 -34.996094 L 2.949219 -34.996094 C 2.5 -34.996094 2.449219 -34.746094 2.449219 -34.445312 L 4.597656 -30.996094 L 4.597656 -1.300781 C 4.597656 -0.5 4.898438 0 5.699219 0 L 11.898438 0 C 12.699219 0 13 -0.5 13 -1.300781 C 13 -2.25 12.347656 -2.648438 11.796875 -3.351562 L 5.300781 -14.25 L 5.300781 -29.847656 L 19.449219 -7.199219 L 20.246094 -7.199219 L 32.097656 -28.546875 L 32.097656 -1.300781 C 32.097656 -0.5 32.398438 0 33.195312 0 Z M 40.644531 0 "/></g></g></g><g fill="#d9ecff" fill-opacity="1"><g transform="translate(286.133571, 137.182588)"><g><path d="M -10.703125 66.890625 C -9.171875 66.890625 -8.601562 65.933594 -8.601562 64.40625 L -8.601562 2.484375 C -8.601562 0.957031 -9.171875 0 -10.703125 0 L -54.277344 0 C -55.613281 0 -56.378906 0.957031 -56.953125 2.484375 L -62.875 17.296875 C -63.066406 17.773438 -63.257812 18.25 -62.78125 18.632812 L -61.632812 19.492188 C -61.441406 19.683594 -61.25 19.683594 -61.058594 19.683594 C -60.773438 19.683594 -60.488281 19.492188 -60.105469 19.300781 L -34.496094 1.335938 L -24.941406 1.335938 L -24.941406 32.96875 L -51.21875 32.488281 L -51.21875 34.78125 L -24.941406 34.304688 L -24.941406 65.550781 L -34.496094 65.550781 L -50.929688 51.695312 C -52.269531 50.644531 -53.894531 49.402344 -55.230469 49.402344 L -55.804688 49.402344 C -57.332031 49.402344 -57.90625 50.359375 -57.90625 51.886719 L -57.90625 64.40625 C -57.90625 65.933594 -57.332031 66.890625 -55.804688 66.890625 Z M -10.703125 66.890625 "/></g></g></g><g fill="#2edd99" fill-opacity="1"><g transform="translate(134.470209, 202.430633)"><g><path d="M 77.6875 0 C 79.214844 0 79.789062 -0.957031 79.789062 -2.484375 L 79.789062 -64.40625 C 79.789062 -65.933594 79.214844 -66.890625 77.6875 -66.890625 L 68.703125 -66.890625 C 66.984375 -66.890625 66.21875 -66.601562 65.550781 -65.359375 L 46.535156 -30.960938 L 25.035156 -64.882812 C 24.175781 -66.316406 22.933594 -66.890625 21.5 -66.890625 L 5.636719 -66.890625 C 4.777344 -66.890625 4.683594 -66.410156 4.683594 -65.839844 L 8.792969 -59.246094 L 8.792969 -2.484375 C 8.792969 -0.957031 9.363281 0 10.894531 0 L 22.742188 0 C 24.269531 0 24.84375 -0.957031 24.84375 -2.484375 C 24.84375 -4.300781 23.601562 -5.066406 22.550781 -6.402344 L 10.128906 -27.234375 L 10.128906 -57.046875 L 37.171875 -13.761719 L 38.699219 -13.761719 L 61.347656 -54.5625 L 61.347656 -2.484375 C 61.347656 -0.957031 61.921875 0 63.449219 0 Z M 77.6875 0 "/></g></g></g><g fill="#2edd99" fill-opacity="1"><g transform="translate(222.859482, 202.430633)"><g/></g></g><g fill="#2edd99" fill-opacity="1"><g transform="translate(251.526292, 202.430633)"><g/></g></g><g fill="#2edd99" fill-opacity="1"><g transform="translate(280.193064, 202.430633)"><g><path d="M 8.601562 -2.484375 C 8.601562 -0.957031 9.171875 0 10.703125 0 L 36.503906 0 C 59.722656 0 72.335938 -10.320312 72.335938 -33.539062 C 72.335938 -56.761719 59.722656 -66.890625 36.503906 -66.890625 L 10.703125 -66.890625 C 9.171875 -66.890625 8.601562 -65.933594 8.601562 -64.40625 Z M 25.894531 -65.550781 L 33.445312 -65.550781 C 44.527344 -65.550781 54.179688 -49.308594 54.179688 -33.539062 C 54.179688 -17.773438 44.527344 -1.335938 33.445312 -1.335938 L 25.894531 -1.335938 Z M 25.894531 -65.550781 "/></g></g></g><g fill="#d9ecff" fill-opacity="1"><g transform="translate(111.548604, 179.617195)"><g><path d="M -5.597656 34.996094 C -4.800781 34.996094 -4.5 34.496094 -4.5 33.695312 L -4.5 1.300781 C -4.5 0.5 -4.800781 0 -5.597656 0 L -28.398438 0 C -29.097656 0 -29.496094 0.5 -29.796875 1.300781 L -32.898438 9.050781 C -32.996094 9.300781 -33.097656 9.550781 -32.847656 9.75 L -32.246094 10.199219 C -32.148438 10.300781 -32.046875 10.300781 -31.945312 10.300781 C -31.796875 10.300781 -31.648438 10.199219 -31.445312 10.097656 L -18.046875 0.699219 L -13.046875 0.699219 L -13.046875 17.25 L -26.796875 17 L -26.796875 18.199219 L -13.046875 17.949219 L -13.046875 34.296875 L -18.046875 34.296875 L -26.648438 27.046875 C -27.347656 26.496094 -28.195312 25.847656 -28.898438 25.847656 L -29.195312 25.847656 C -29.996094 25.847656 -30.296875 26.347656 -30.296875 27.148438 L -30.296875 33.695312 C -30.296875 34.496094 -29.996094 34.996094 -29.195312 34.996094 Z M -5.597656 34.996094 "/></g></g></g><g fill="#d9ecff" fill-opacity="1"><g transform="translate(165.334741, 266.471935)"><g><path d="M 13.929688 -25.0625 L 3.515625 -2.734375 C 3.125 -2.082031 3.191406 -1.496094 3.644531 -0.847656 C 3.972656 -0.261719 4.492188 0 5.207031 0 L 9.113281 0 C 9.894531 0 10.480469 -0.324219 10.871094 -1.105469 L 17.578125 -15.492188 C 17.640625 -15.6875 17.835938 -15.820312 18.097656 -15.820312 C 18.292969 -15.820312 18.421875 -15.6875 18.554688 -15.492188 L 25.257812 -1.105469 C 25.585938 -0.324219 26.171875 0 27.015625 0 L 30.921875 0 C 31.574219 0 32.09375 -0.261719 32.484375 -0.847656 C 32.875 -1.496094 32.941406 -2.082031 32.613281 -2.734375 L 22.199219 -25.0625 C 22.132812 -25.195312 22.132812 -25.324219 22.199219 -25.519531 L 31.3125 -44.984375 C 31.574219 -45.636719 31.574219 -46.285156 31.183594 -46.808594 C 30.792969 -47.394531 30.273438 -47.71875 29.621094 -47.71875 L 25.714844 -47.71875 C 24.867188 -47.71875 24.28125 -47.328125 23.957031 -46.613281 L 18.554688 -35.023438 C 18.421875 -34.761719 18.292969 -34.699219 18.097656 -34.699219 C 17.835938 -34.699219 17.640625 -34.761719 17.578125 -35.023438 L 12.171875 -46.613281 C 11.78125 -47.328125 11.195312 -47.71875 10.414062 -47.71875 L 6.511719 -47.71875 C 5.792969 -47.71875 5.273438 -47.394531 4.949219 -46.808594 C 4.558594 -46.285156 4.492188 -45.636719 4.816406 -44.984375 L 13.929688 -25.519531 C 13.929688 -25.324219 13.929688 -25.195312 13.929688 -25.0625 Z M 13.929688 -25.0625 "/></g></g></g><g fill="#d9ecff" fill-opacity="1"><g transform="translate(201.463885, 266.471935)"><g><path d="M 15.882812 -47.71875 L 5.144531 -47.71875 C 4.621094 -47.71875 4.167969 -47.523438 3.777344 -47.132812 C 3.386719 -46.742188 3.253906 -46.351562 3.253906 -45.832031 L 3.253906 -1.886719 C 3.253906 -1.367188 3.386719 -0.910156 3.777344 -0.519531 C 4.167969 -0.128906 4.621094 0 5.144531 0 L 8.722656 0 C 9.246094 0 9.636719 -0.128906 10.027344 -0.519531 C 10.414062 -0.910156 10.609375 -1.367188 10.609375 -1.886719 L 10.609375 -12.304688 C 10.609375 -12.824219 10.742188 -13.214844 11.132812 -13.605469 C 11.523438 -13.996094 11.976562 -14.191406 12.5 -14.191406 L 15.882812 -14.191406 C 18.878906 -14.191406 21.351562 -14.972656 23.371094 -16.664062 C 25.390625 -18.292969 26.886719 -20.375 27.929688 -22.851562 C 28.90625 -25.324219 29.425781 -28.058594 29.425781 -30.921875 C 29.425781 -33.785156 28.90625 -36.519531 27.929688 -38.996094 C 26.886719 -41.46875 25.390625 -43.550781 23.371094 -45.246094 C 21.351562 -46.871094 18.878906 -47.71875 15.882812 -47.71875 Z M 16.015625 -21.546875 L 12.5 -21.546875 C 11.976562 -21.546875 11.523438 -21.679688 11.132812 -22.070312 C 10.742188 -22.460938 10.609375 -22.914062 10.609375 -23.4375 L 10.609375 -38.472656 C 10.609375 -38.996094 10.742188 -39.386719 11.132812 -39.777344 C 11.523438 -40.167969 11.976562 -40.363281 12.5 -40.363281 L 16.015625 -40.363281 C 17.382812 -40.363281 18.554688 -39.839844 19.464844 -38.929688 C 20.375 -38.019531 21.027344 -36.847656 21.484375 -35.480469 C 21.9375 -34.046875 22.199219 -32.550781 22.199219 -30.921875 C 22.199219 -29.296875 21.9375 -27.796875 21.484375 -26.429688 C 20.960938 -25 20.3125 -23.828125 19.398438 -22.914062 C 18.488281 -22.003906 17.316406 -21.546875 16.015625 -21.546875 Z M 16.015625 -21.546875 "/></g></g></g><g fill="#d9ecff" fill-opacity="1"><g transform="translate(234.207959, 266.471935)"><g><path d="M 15.882812 -47.71875 L 5.144531 -47.71875 C 4.621094 -47.71875 4.167969 -47.523438 3.777344 -47.132812 C 3.386719 -46.742188 3.253906 -46.351562 3.253906 -45.832031 L 3.253906 -1.886719 C 3.253906 -1.367188 3.386719 -0.910156 3.777344 -0.519531 C 4.167969 -0.128906 4.621094 0 5.144531 0 L 8.722656 0 C 9.246094 0 9.636719 -0.128906 10.027344 -0.519531 C 10.414062 -0.910156 10.609375 -1.367188 10.609375 -1.886719 L 10.609375 -12.304688 C 10.609375 -12.824219 10.742188 -13.214844 11.132812 -13.605469 C 11.523438 -13.996094 11.976562 -14.191406 12.5 -14.191406 L 15.101562 -14.191406 C 16.015625 -14.191406 16.601562 -13.734375 16.925781 -12.953125 L 21.15625 -1.238281 C 21.417969 -0.390625 22.070312 0 22.980469 0 L 26.691406 0 C 27.34375 0 27.863281 -0.261719 28.253906 -0.78125 C 28.644531 -1.300781 28.710938 -1.886719 28.515625 -2.539062 L 23.828125 -15.429688 C 23.5 -16.210938 23.695312 -16.859375 24.347656 -17.445312 C 25.78125 -18.8125 26.953125 -20.507812 27.796875 -22.589844 C 28.644531 -24.609375 29.164062 -26.757812 29.359375 -29.035156 C 29.554688 -31.246094 29.425781 -33.527344 28.96875 -35.738281 C 28.449219 -37.953125 27.667969 -39.90625 26.5625 -41.730469 C 25.390625 -43.488281 23.957031 -44.917969 22.199219 -46.027344 C 20.375 -47.132812 18.292969 -47.71875 15.882812 -47.71875 Z M 10.609375 -23.4375 L 10.609375 -38.472656 C 10.609375 -38.996094 10.742188 -39.386719 11.132812 -39.777344 C 11.523438 -40.167969 11.976562 -40.363281 12.5 -40.363281 L 16.015625 -40.363281 C 17.382812 -40.363281 18.554688 -39.839844 19.464844 -38.929688 C 20.375 -38.019531 21.027344 -36.847656 21.484375 -35.480469 C 21.9375 -34.046875 22.199219 -32.550781 22.199219 -30.921875 C 22.199219 -29.296875 21.9375 -27.796875 21.484375 -26.429688 C 20.960938 -25 20.3125 -23.828125 19.398438 -22.914062 C 18.488281 -22.003906 17.316406 -21.546875 16.015625 -21.546875 L 12.5 -21.546875 C 11.976562 -21.546875 11.523438 -21.679688 11.132812 -22.070312 C 10.742188 -22.460938 10.609375 -22.914062 10.609375 -23.4375 Z M 10.609375 -23.4375 "/></g></g></g><g fill="#d9ecff" fill-opacity="1"><g transform="translate(266.952032, 266.471935)"><g><path d="M 26.691406 -42.25 L 26.691406 -45.832031 C 26.691406 -46.351562 26.496094 -46.742188 26.105469 -47.132812 C 25.714844 -47.523438 25.324219 -47.71875 24.804688 -47.71875 L 5.144531 -47.71875 C 4.621094 -47.71875 4.167969 -47.523438 3.777344 -47.132812 C 3.386719 -46.742188 3.253906 -46.351562 3.253906 -45.832031 L 3.253906 -1.886719 C 3.253906 -1.367188 3.386719 -0.910156 3.777344 -0.519531 C 4.167969 -0.128906 4.621094 0 5.144531 0 L 24.804688 0 C 25.324219 0 25.714844 -0.128906 26.105469 -0.519531 C 26.496094 -0.910156 26.691406 -1.367188 26.691406 -1.886719 L 26.691406 -5.46875 C 26.691406 -5.988281 26.496094 -6.378906 26.105469 -6.769531 C 25.714844 -7.160156 25.324219 -7.355469 24.804688 -7.355469 L 12.5 -7.355469 C 11.976562 -7.355469 11.523438 -7.488281 11.132812 -7.878906 C 10.742188 -8.269531 10.609375 -8.722656 10.609375 -9.246094 L 10.609375 -23.4375 C 10.609375 -23.957031 10.742188 -24.347656 11.132812 -24.738281 C 11.523438 -25.128906 11.976562 -25.324219 12.5 -25.324219 L 20.636719 -25.324219 C 21.15625 -25.324219 21.613281 -25.519531 22.003906 -25.910156 C 22.394531 -26.300781 22.589844 -26.757812 22.589844 -27.277344 L 22.589844 -30.792969 C 22.589844 -31.3125 22.394531 -31.703125 22.003906 -32.09375 C 21.613281 -32.484375 21.15625 -32.679688 20.636719 -32.679688 L 12.5 -32.679688 C 11.976562 -32.679688 11.523438 -32.808594 11.132812 -33.199219 C 10.742188 -33.589844 10.609375 -34.046875 10.609375 -34.566406 L 10.609375 -38.472656 C 10.609375 -38.996094 10.742188 -39.386719 11.132812 -39.777344 C 11.523438 -40.167969 11.976562 -40.363281 12.5 -40.363281 L 24.804688 -40.363281 C 25.324219 -40.363281 25.714844 -40.492188 26.105469 -40.882812 C 26.496094 -41.273438 26.691406 -41.730469 26.691406 -42.25 Z M 26.691406 -42.25 "/></g></g></g><g fill="#d9ecff" fill-opacity="1"><g transform="translate(296.896916, 266.471935)"><g><path d="M 14.90625 -47.71875 C 11.066406 -47.71875 8.203125 -46.675781 6.316406 -44.660156 C 4.363281 -42.574219 3.449219 -39.710938 3.449219 -36 C 3.449219 -34.632812 3.582031 -33.394531 3.839844 -32.222656 C 4.101562 -31.050781 4.621094 -29.882812 5.273438 -28.710938 C 5.925781 -27.539062 6.835938 -26.367188 7.941406 -25.195312 C 8.984375 -24.023438 10.351562 -22.71875 11.976562 -21.417969 C 13.214844 -20.375 14.257812 -19.398438 15.101562 -18.488281 C 15.949219 -17.578125 16.664062 -16.796875 17.1875 -16.015625 C 17.707031 -15.234375 18.03125 -14.453125 18.292969 -13.671875 C 18.488281 -12.890625 18.617188 -12.042969 18.617188 -11.261719 C 18.617188 -9.570312 18.226562 -8.398438 17.511719 -7.746094 C 16.796875 -7.03125 15.820312 -6.707031 14.582031 -6.707031 C 13.28125 -6.707031 12.304688 -7.03125 11.652344 -7.746094 C 10.9375 -8.398438 10.609375 -9.570312 10.609375 -11.261719 L 10.609375 -13.148438 C 10.609375 -13.539062 10.414062 -13.867188 10.15625 -14.125 C 9.832031 -14.386719 9.503906 -14.582031 9.113281 -14.582031 L 4.6875 -14.582031 C 4.296875 -14.582031 3.90625 -14.386719 3.644531 -14.125 C 3.386719 -13.867188 3.253906 -13.539062 3.253906 -13.148438 L 3.253906 -11.71875 C 3.253906 -7.941406 4.230469 -5.011719 6.183594 -2.996094 C 8.136719 -0.976562 11 0 14.84375 0 C 18.617188 0 21.484375 -0.976562 23.4375 -2.996094 C 25.390625 -5.011719 26.367188 -7.941406 26.367188 -11.71875 C 26.367188 -13.019531 26.171875 -14.320312 25.910156 -15.492188 C 25.648438 -16.664062 25.195312 -17.773438 24.542969 -18.945312 C 23.890625 -20.117188 22.980469 -21.289062 21.875 -22.460938 C 20.765625 -23.632812 19.398438 -24.933594 17.835938 -26.300781 C 16.535156 -27.34375 15.492188 -28.253906 14.648438 -29.164062 C 13.800781 -30.078125 13.148438 -30.921875 12.628906 -31.703125 C 12.109375 -32.484375 11.71875 -33.199219 11.523438 -33.980469 C 11.261719 -34.761719 11.195312 -35.542969 11.195312 -36.457031 C 11.195312 -38.082031 11.523438 -39.253906 12.171875 -39.972656 C 12.824219 -40.6875 13.800781 -41.078125 15.101562 -41.078125 C 16.339844 -41.078125 17.316406 -40.6875 17.96875 -39.972656 C 18.617188 -39.253906 18.945312 -38.082031 18.945312 -36.457031 L 18.945312 -36 C 18.945312 -35.542969 19.074219 -35.152344 19.335938 -34.894531 C 19.59375 -34.632812 19.984375 -34.503906 20.441406 -34.503906 L 24.804688 -34.503906 C 25.195312 -34.503906 25.585938 -34.632812 25.84375 -34.894531 C 26.105469 -35.152344 26.300781 -35.542969 26.300781 -36 C 26.300781 -39.710938 25.324219 -42.574219 23.4375 -44.660156 C 21.484375 -46.675781 18.683594 -47.71875 14.90625 -47.71875 Z M 14.90625 -47.71875 "/></g></g></g><g fill="#d9ecff" fill-opacity="1"><g transform="translate(326.516306, 266.471935)"><g><path d="M 14.90625 -47.71875 C 11.066406 -47.71875 8.203125 -46.675781 6.316406 -44.660156 C 4.363281 -42.574219 3.449219 -39.710938 3.449219 -36 C 3.449219 -34.632812 3.582031 -33.394531 3.839844 -32.222656 C 4.101562 -31.050781 4.621094 -29.882812 5.273438 -28.710938 C 5.925781 -27.539062 6.835938 -26.367188 7.941406 -25.195312 C 8.984375 -24.023438 10.351562 -22.71875 11.976562 -21.417969 C 13.214844 -20.375 14.257812 -19.398438 15.101562 -18.488281 C 15.949219 -17.578125 16.664062 -16.796875 17.1875 -16.015625 C 17.707031 -15.234375 18.03125 -14.453125 18.292969 -13.671875 C 18.488281 -12.890625 18.617188 -12.042969 18.617188 -11.261719 C 18.617188 -9.570312 18.226562 -8.398438 17.511719 -7.746094 C 16.796875 -7.03125 15.820312 -6.707031 14.582031 -6.707031 C 13.28125 -6.707031 12.304688 -7.03125 11.652344 -7.746094 C 10.9375 -8.398438 10.609375 -9.570312 10.609375 -11.261719 L 10.609375 -13.148438 C 10.609375 -13.539062 10.414062 -13.867188 10.15625 -14.125 C 9.832031 -14.386719 9.503906 -14.582031 9.113281 -14.582031 L 4.6875 -14.582031 C 4.296875 -14.582031 3.90625 -14.386719 3.644531 -14.125 C 3.386719 -13.867188 3.253906 -13.539062 3.253906 -13.148438 L 3.253906 -11.71875 C 3.253906 -7.941406 4.230469 -5.011719 6.183594 -2.996094 C 8.136719 -0.976562 11 0 14.84375 0 C 18.617188 0 21.484375 -0.976562 23.4375 -2.996094 C 25.390625 -5.011719 26.367188 -7.941406 26.367188 -11.71875 C 26.367188 -13.019531 26.171875 -14.320312 25.910156 -15.492188 C 25.648438 -16.664062 25.195312 -17.773438 24.542969 -18.945312 C 23.890625 -20.117188 22.980469 -21.289062 21.875 -22.460938 C 20.765625 -23.632812 19.398438 -24.933594 17.835938 -26.300781 C 16.535156 -27.34375 15.492188 -28.253906 14.648438 -29.164062 C 13.800781 -30.078125 13.148438 -30.921875 12.628906 -31.703125 C 12.109375 -32.484375 11.71875 -33.199219 11.523438 -33.980469 C 11.261719 -34.761719 11.195312 -35.542969 11.195312 -36.457031 C 11.195312 -38.082031 11.523438 -39.253906 12.171875 -39.972656 C 12.824219 -40.6875 13.800781 -41.078125 15.101562 -41.078125 C 16.339844 -41.078125 17.316406 -40.6875 17.96875 -39.972656 C 18.617188 -39.253906 18.945312 -38.082031 18.945312 -36.457031 L 18.945312 -36 C 18.945312 -35.542969 19.074219 -35.152344 19.335938 -34.894531 C 19.59375 -34.632812 19.984375 -34.503906 20.441406 -34.503906 L 24.804688 -34.503906 C 25.195312 -34.503906 25.585938 -34.632812 25.84375 -34.894531 C 26.105469 -35.152344 26.300781 -35.542969 26.300781 -36 C 26.300781 -39.710938 25.324219 -42.574219 23.4375 -44.660156 C 21.484375 -46.675781 18.683594 -47.71875 14.90625 -47.71875 Z M 14.90625 -47.71875 "/></g></g></g><g fill="#2edd99" fill-opacity="1"><g transform="translate(134.570093, 265.545686)"><g><path d="M 26.691406 -42.25 L 26.691406 -45.832031 C 26.691406 -46.351562 26.496094 -46.742188 26.105469 -47.132812 C 25.714844 -47.523438 25.324219 -47.71875 24.804688 -47.71875 L 5.144531 -47.71875 C 4.621094 -47.71875 4.167969 -47.523438 3.777344 -47.132812 C 3.386719 -46.742188 3.253906 -46.351562 3.253906 -45.832031 L 3.253906 -1.886719 C 3.253906 -1.367188 3.386719 -0.910156 3.777344 -0.519531 C 4.167969 -0.128906 4.621094 0 5.144531 0 L 24.804688 0 C 25.324219 0 25.714844 -0.128906 26.105469 -0.519531 C 26.496094 -0.910156 26.691406 -1.367188 26.691406 -1.886719 L 26.691406 -5.46875 C 26.691406 -5.988281 26.496094 -6.378906 26.105469 -6.769531 C 25.714844 -7.160156 25.324219 -7.355469 24.804688 -7.355469 L 12.5 -7.355469 C 11.976562 -7.355469 11.523438 -7.488281 11.132812 -7.878906 C 10.742188 -8.269531 10.609375 -8.722656 10.609375 -9.246094 L 10.609375 -23.4375 C 10.609375 -23.957031 10.742188 -24.347656 11.132812 -24.738281 C 11.523438 -25.128906 11.976562 -25.324219 12.5 -25.324219 L 20.636719 -25.324219 C 21.15625 -25.324219 21.613281 -25.519531 22.003906 -25.910156 C 22.394531 -26.300781 22.589844 -26.757812 22.589844 -27.277344 L 22.589844 -30.792969 C 22.589844 -31.3125 22.394531 -31.703125 22.003906 -32.09375 C 21.613281 -32.484375 21.15625 -32.679688 20.636719 -32.679688 L 12.5 -32.679688 C 11.976562 -32.679688 11.523438 -32.808594 11.132812 -33.199219 C 10.742188 -33.589844 10.609375 -34.046875 10.609375 -34.566406 L 10.609375 -38.472656 C 10.609375 -38.996094 10.742188 -39.386719 11.132812 -39.777344 C 11.523438 -40.167969 11.976562 -40.363281 12.5 -40.363281 L 24.804688 -40.363281 C 25.324219 -40.363281 25.714844 -40.492188 26.105469 -40.882812 C 26.496094 -41.273438 26.691406 -41.730469 26.691406 -42.25 Z M 26.691406 -42.25 "/></g></g></g><g fill="#2edd99" fill-opacity="1"><g transform="translate(268.208629, 265.545686)"><g><path d="M 26.691406 -42.25 L 26.691406 -45.832031 C 26.691406 -46.351562 26.496094 -46.742188 26.105469 -47.132812 C 25.714844 -47.523438 25.324219 -47.71875 24.804688 -47.71875 L 5.144531 -47.71875 C 4.621094 -47.71875 4.167969 -47.523438 3.777344 -47.132812 C 3.386719 -46.742188 3.253906 -46.351562 3.253906 -45.832031 L 3.253906 -1.886719 C 3.253906 -1.367188 3.386719 -0.910156 3.777344 -0.519531 C 4.167969 -0.128906 4.621094 0 5.144531 0 L 24.804688 0 C 25.324219 0 25.714844 -0.128906 26.105469 -0.519531 C 26.496094 -0.910156 26.691406 -1.367188 26.691406 -1.886719 L 26.691406 -5.46875 C 26.691406 -5.988281 26.496094 -6.378906 26.105469 -6.769531 C 25.714844 -7.160156 25.324219 -7.355469 24.804688 -7.355469 L 12.5 -7.355469 C 11.976562 -7.355469 11.523438 -7.488281 11.132812 -7.878906 C 10.742188 -8.269531 10.609375 -8.722656 10.609375 -9.246094 L 10.609375 -23.4375 C 10.609375 -23.957031 10.742188 -24.347656 11.132812 -24.738281 C 11.523438 -25.128906 11.976562 -25.324219 12.5 -25.324219 L 20.636719 -25.324219 C 21.15625 -25.324219 21.613281 -25.519531 22.003906 -25.910156 C 22.394531 -26.300781 22.589844 -26.757812 22.589844 -27.277344 L 22.589844 -30.792969 C 22.589844 -31.3125 22.394531 -31.703125 22.003906 -32.09375 C 21.613281 -32.484375 21.15625 -32.679688 20.636719 -32.679688 L 12.5 -32.679688 C 11.976562 -32.679688 11.523438 -32.808594 11.132812 -33.199219 C 10.742188 -33.589844 10.609375 -34.046875 10.609375 -34.566406 L 10.609375 -38.472656 C 10.609375 -38.996094 10.742188 -39.386719 11.132812 -39.777344 C 11.523438 -40.167969 11.976562 -40.363281 12.5 -40.363281 L 24.804688 -40.363281 C 25.324219 -40.363281 25.714844 -40.492188 26.105469 -40.882812 C 26.496094 -41.273438 26.691406 -41.730469 26.691406 -42.25 Z M 26.691406 -42.25 "/></g></g></g><g fill="#2edd99" fill-opacity="1"><g transform="translate(268.208629, 356.29568)"><g/></g></g><g fill="#d9ecff" fill-opacity="1"><g transform="translate(136.492906, 264.729402)"><g><path d="M 26.695312 -42.257812 L 26.695312 -45.835938 C 26.695312 -46.359375 26.5 -46.75 26.109375 -47.140625 C 25.71875 -47.53125 25.328125 -47.726562 24.808594 -47.726562 L 5.144531 -47.726562 C 4.621094 -47.726562 4.167969 -47.53125 3.777344 -47.140625 C 3.386719 -46.75 3.253906 -46.359375 3.253906 -45.835938 L 3.253906 -1.886719 C 3.253906 -1.367188 3.386719 -0.910156 3.777344 -0.519531 C 4.167969 -0.128906 4.621094 0 5.144531 0 L 24.808594 0 C 25.328125 0 25.71875 -0.128906 26.109375 -0.519531 C 26.5 -0.910156 26.695312 -1.367188 26.695312 -1.886719 L 26.695312 -5.46875 C 26.695312 -5.988281 26.5 -6.378906 26.109375 -6.769531 C 25.71875 -7.160156 25.328125 -7.355469 24.808594 -7.355469 L 12.5 -7.355469 C 11.980469 -7.355469 11.523438 -7.488281 11.132812 -7.878906 C 10.742188 -8.269531 10.613281 -8.726562 10.613281 -9.246094 L 10.613281 -23.4375 C 10.613281 -23.960938 10.742188 -24.351562 11.132812 -24.742188 C 11.523438 -25.132812 11.980469 -25.328125 12.5 -25.328125 L 20.640625 -25.328125 C 21.160156 -25.328125 21.617188 -25.523438 22.007812 -25.914062 C 22.398438 -26.304688 22.59375 -26.761719 22.59375 -27.28125 L 22.59375 -30.796875 C 22.59375 -31.316406 22.398438 -31.707031 22.007812 -32.097656 C 21.617188 -32.488281 21.160156 -32.683594 20.640625 -32.683594 L 12.5 -32.683594 C 11.980469 -32.683594 11.523438 -32.816406 11.132812 -33.207031 C 10.742188 -33.597656 10.613281 -34.050781 10.613281 -34.574219 L 10.613281 -38.480469 C 10.613281 -39 10.742188 -39.390625 11.132812 -39.78125 C 11.523438 -40.171875 11.980469 -40.367188 12.5 -40.367188 L 24.808594 -40.367188 C 25.328125 -40.367188 25.71875 -40.5 26.109375 -40.890625 C 26.5 -41.28125 26.695312 -41.734375 26.695312 -42.257812 Z M 26.695312 -42.257812 "/></g></g></g><g fill="#d9ecff" fill-opacity="1"><g transform="translate(136.492906, 355.507574)"><g/></g></g></svg>